<svg width="486" height="486" viewBox="0 0 486 486" fill="none" xmlns="http://www.w3.org/2000/svg">
<g filter="url(#filter0_d)">
<rect x="18" y="16" width="215" height="215" rx="6.93548" fill="black"/>
<g clip-path="url(#clip0)">
<path d="M125.5 94.6022C119.785 94.6022 114.198 96.297 109.445 99.4723C104.693 102.648 100.989 107.161 98.802 112.441C96.6148 117.722 96.0425 123.532 97.1576 129.138C98.2726 134.743 101.025 139.892 105.066 143.934C109.108 147.975 114.257 150.728 119.862 151.843C125.468 152.958 131.278 152.385 136.559 150.198C141.839 148.011 146.353 144.307 149.528 139.555C152.703 134.803 154.398 129.215 154.398 123.5C154.398 115.836 151.353 108.486 145.934 103.066C140.515 97.6468 133.164 94.6022 125.5 94.6022V94.6022ZM138.747 136.284C138.624 136.486 138.462 136.662 138.271 136.801C138.08 136.94 137.863 137.039 137.633 137.094C137.403 137.149 137.164 137.158 136.931 137.12C136.698 137.082 136.474 136.999 136.273 136.874C129.488 132.736 120.946 131.799 110.843 134.088C110.601 134.188 110.34 134.233 110.079 134.222C109.818 134.21 109.562 134.142 109.329 134.022C109.097 133.901 108.894 133.732 108.733 133.525C108.573 133.319 108.459 133.079 108.401 132.824C108.342 132.569 108.34 132.305 108.394 132.049C108.447 131.793 108.556 131.551 108.713 131.342C108.869 131.132 109.07 130.959 109.3 130.834C109.53 130.71 109.784 130.637 110.046 130.62C121.096 128.124 130.54 129.152 138.215 133.799C138.614 134.059 138.894 134.467 138.993 134.932C139.093 135.398 139.004 135.884 138.747 136.284ZM142.284 128.413C142.13 128.666 141.928 128.886 141.688 129.06C141.449 129.234 141.177 129.359 140.889 129.428C140.601 129.497 140.302 129.508 140.01 129.461C139.718 129.413 139.438 129.309 139.186 129.152C131.418 124.379 119.536 123.003 110.392 125.789C110.106 125.887 109.802 125.927 109.5 125.905C109.198 125.884 108.903 125.801 108.634 125.663C108.364 125.525 108.125 125.334 107.931 125.102C107.737 124.869 107.591 124.6 107.503 124.31C107.416 124.02 107.387 123.716 107.42 123.415C107.452 123.113 107.545 122.822 107.693 122.557C107.841 122.293 108.04 122.061 108.28 121.875C108.519 121.69 108.793 121.554 109.086 121.477C119.582 118.287 132.632 119.836 141.544 125.315C141.797 125.469 142.017 125.671 142.191 125.911C142.366 126.15 142.491 126.422 142.56 126.71C142.628 126.998 142.639 127.296 142.592 127.589C142.545 127.881 142.44 128.161 142.284 128.413ZM146.307 119.246C146.127 119.552 145.888 119.819 145.604 120.033C145.321 120.246 144.998 120.401 144.654 120.489C144.31 120.577 143.953 120.596 143.601 120.546C143.25 120.495 142.913 120.376 142.608 120.194C133.291 114.657 117.929 114.149 109.086 116.842C108.747 116.944 108.391 116.979 108.038 116.944C107.685 116.909 107.343 116.804 107.031 116.637C106.719 116.47 106.442 116.242 106.218 115.968C105.993 115.694 105.825 115.378 105.722 115.039C105.62 114.699 105.585 114.343 105.621 113.991C105.656 113.638 105.76 113.296 105.927 112.983C106.095 112.671 106.322 112.395 106.596 112.17C106.871 111.946 107.186 111.777 107.526 111.675C117.732 108.577 134.701 109.178 145.417 115.536C146.025 115.911 146.461 116.512 146.627 117.207C146.794 117.903 146.679 118.636 146.307 119.246Z" fill="#1ED760"/>
</g>
</g>
<g filter="url(#filter1_d)">
<g clip-path="url(#clip1)">
<g filter="url(#filter2_d)">
<rect x="249" y="16" width="215" height="215" rx="6.93548" fill="black"/>
</g>
<g clip-path="url(#clip2)">
<path fill-rule="evenodd" clip-rule="evenodd" d="M360.844 94.7747V107.432V120.146L359.797 117.189L358.451 145.494C359.774 149.245 360.488 151.247 360.499 151.247L362.179 151.351C364.952 151.489 368.393 151.777 370.993 152.099C371.373 152.162 371.758 152.193 372.144 152.191C372.144 152.191 372.144 139.212 372.144 123.425V94.6597H360.867L360.844 94.7747Z" fill="#B1060F" stroke="black" stroke-width="0.26586" stroke-miterlimit="10"/>
<path fill-rule="evenodd" clip-rule="evenodd" d="M340.456 94.7408V123.506C340.456 139.316 340.456 152.272 340.456 152.272C340.456 152.272 341.469 152.191 342.619 152.053L346.232 151.697C347.475 151.593 351.191 151.351 351.629 151.351C351.755 151.351 351.755 150.696 351.778 139.166V126.993L352.676 129.536C352.814 129.938 352.86 130.053 352.986 130.445L354.344 102.139L353.872 100.828C352.837 97.7094 351.905 95.063 351.824 94.9479V94.7408H340.456Z" fill="#B1060F" stroke="black" stroke-width="0.26586" stroke-miterlimit="10"/>
<path fill-rule="evenodd" clip-rule="evenodd" d="M340.456 94.7408V110.85L351.824 141.019V139.166V126.993L352.722 129.536C357.727 143.7 360.408 151.294 360.431 151.317L362.111 151.42C364.884 151.558 368.324 151.846 370.924 152.168C371.305 152.232 371.69 152.263 372.075 152.26C372.075 152.26 372.075 145.897 372.075 136.934L360.834 104.406V107.49V120.204L359.786 117.247C358.774 114.37 358.084 112.437 353.976 100.828C352.837 97.7094 351.905 95.063 351.824 94.9479V94.7408H340.456Z" fill="url(#paint0_radial)"/>
<path fill-rule="evenodd" clip-rule="evenodd" d="M340.456 94.7408L351.824 127.016L352.722 129.559C357.727 143.723 360.408 151.317 360.431 151.34L362.111 151.443C364.884 151.581 368.324 151.869 370.924 152.191C371.305 152.255 371.69 152.286 372.075 152.283L360.799 120.193L359.752 117.235C358.739 114.359 358.049 112.426 353.941 100.816C352.837 97.7094 351.905 95.063 351.824 94.9479V94.7408H340.456Z" fill="#E50914"/>
<path fill-rule="evenodd" clip-rule="evenodd" d="M360.844 94.7747V107.432V120.146L359.797 117.189L358.451 145.494C359.774 149.245 360.488 151.247 360.499 151.247L362.179 151.351C364.952 151.489 368.393 151.777 370.993 152.099C371.373 152.162 371.758 152.193 372.144 152.191C372.144 152.191 372.144 139.212 372.144 123.425V94.6597H360.867L360.844 94.7747Z" fill="#B1060F" stroke="black" stroke-width="0.26586" stroke-miterlimit="10"/>
<path fill-rule="evenodd" clip-rule="evenodd" d="M340.456 94.7408V123.506C340.456 139.316 340.456 152.272 340.456 152.272C340.456 152.272 341.469 152.191 342.619 152.053L346.232 151.697C347.475 151.593 351.191 151.351 351.629 151.351C351.755 151.351 351.755 150.696 351.778 139.166V126.993L352.676 129.536C352.814 129.938 352.86 130.053 352.986 130.445L354.344 102.139L353.872 100.828C352.837 97.7094 351.905 95.063 351.824 94.9479V94.7408H340.456Z" fill="#B1060F" stroke="black" stroke-width="0.26586" stroke-miterlimit="10"/>
<path fill-rule="evenodd" clip-rule="evenodd" d="M340.456 94.7408V110.85L351.824 141.019V139.166V126.993L352.722 129.536C357.727 143.7 360.408 151.294 360.431 151.317L362.111 151.42C364.884 151.558 368.324 151.846 370.924 152.168C371.305 152.232 371.69 152.263 372.075 152.26C372.075 152.26 372.075 145.897 372.075 136.934L360.834 104.406V107.49V120.204L359.786 117.247C358.774 114.37 358.084 112.437 353.976 100.828C352.837 97.7094 351.905 95.063 351.824 94.9479V94.7408H340.456Z" fill="url(#paint1_radial)"/>
<path fill-rule="evenodd" clip-rule="evenodd" d="M340.456 94.7408L351.824 127.016L352.722 129.559C357.727 143.723 360.408 151.317 360.431 151.34L362.111 151.443C364.884 151.581 368.324 151.869 370.924 152.191C371.305 152.255 371.69 152.286 372.075 152.283L360.799 120.193L359.752 117.235C358.739 114.359 358.049 112.426 353.941 100.816C352.837 97.7094 351.905 95.063 351.824 94.9479V94.7408H340.456Z" fill="#E50914"/>
</g>
<path fill-rule="evenodd" clip-rule="evenodd" d="M446 44C451.523 44 456 39.5228 456 34C456 28.4772 451.523 24 446 24C440.477 24 436 28.4772 436 34C436 39.5228 440.477 44 446 44ZM447.286 32.3574C447.286 33.2659 446.603 33.9622 445.829 33.9622C445.059 33.9622 444.376 33.2659 444.376 32.3666C444.376 31.472 445.059 30.7987 445.829 30.7987C446.603 30.7987 447.286 31.4536 447.286 32.3574ZM442.937 32.648C442.937 33.4365 442.342 34.0453 441.669 34.0453C441 34.0453 440.401 33.4365 440.401 32.6572C440.401 31.8732 441 31.2922 441.669 31.2922C442.342 31.2922 442.937 31.8594 442.937 32.648ZM451.261 32.6572C451.261 33.4365 450.662 34.0453 449.988 34.0453C449.32 34.0453 448.725 33.4365 448.725 32.648C448.725 31.8594 449.32 31.2922 449.988 31.2922C450.662 31.2922 451.261 31.8732 451.261 32.6572ZM442.329 37.3287H439.686C439.193 37.3287 439.013 37.135 439.013 36.8076C439.013 35.8161 440.037 34.5986 441.669 34.5986C442.324 34.5986 442.831 34.7831 443.232 35.0367C442.462 35.6178 441.96 36.7153 442.329 37.3287ZM452.649 36.8076C452.649 37.135 452.469 37.3287 451.976 37.3287H449.334C449.702 36.7153 449.2 35.6178 448.425 35.0367C448.831 34.7831 449.338 34.5986 449.993 34.5986C451.625 34.5986 452.649 35.8161 452.649 36.8076ZM448.061 37.3287H443.601C442.983 37.3287 442.781 37.1534 442.781 36.8352C442.781 35.8991 443.952 34.6079 445.829 34.6079C447.71 34.6079 448.882 35.8991 448.882 36.8352C448.882 37.1534 448.679 37.3287 448.061 37.3287Z" fill="white" fill-opacity="0.5"/>
</g>
</g>
<g filter="url(#filter3_d)">
<rect x="18" y="247" width="215" height="215" rx="6.93548" fill="white"/>
<g clip-path="url(#clip3)">
<path fill-rule="evenodd" clip-rule="evenodd" d="M133.649 329.209L100.232 331.671C99.7153 331.672 99.2049 331.783 98.7342 331.995C98.2634 332.207 97.8429 332.517 97.5001 332.903C97.1574 333.29 96.9002 333.744 96.7455 334.237C96.5907 334.73 96.5419 335.25 96.6022 335.763V372.278C96.6802 374.099 97.3822 375.838 98.5904 377.202L106.451 387.374C107.745 389.016 108.913 389.374 111.375 389.258L150.179 386.947C153.462 386.715 154.398 385.19 154.398 382.612V341.496C154.398 340.167 153.866 339.785 152.317 338.652L152.086 338.456L141.382 330.966C138.805 329.07 137.753 328.85 133.649 329.209ZM112.253 340.826C109.086 341.034 108.369 341.08 106.566 339.67L101.989 336.005C101.526 335.543 101.758 334.953 102.937 334.849L135.059 332.538C135.978 332.418 136.911 332.492 137.799 332.755C138.687 333.018 139.51 333.463 140.215 334.063L145.717 338.04C145.96 338.167 146.538 338.86 145.833 338.86L112.669 340.791L112.253 340.826ZM108.554 382.242V347.345C108.554 345.831 109.028 345.126 110.438 345.033L148.584 342.814C149.878 342.687 150.456 343.507 150.456 345.033V379.71C150.456 381.236 150.225 382.519 148.144 382.635L111.629 384.692C109.502 384.808 108.554 384.103 108.554 382.242ZM144.55 349.217C144.781 350.281 144.55 351.333 143.498 351.448L141.741 351.795V377.549C140.494 378.297 139.088 378.737 137.637 378.832C135.753 378.832 135.325 378.254 133.88 376.52L122.391 358.488V375.908L126.032 376.728C126.032 376.728 126.032 378.832 123.096 378.832L115.004 379.306C114.88 378.948 114.895 378.556 115.047 378.209C115.199 377.861 115.477 377.584 115.825 377.433L117.94 376.844V353.783L115.004 353.552C114.931 353.241 114.927 352.918 114.992 352.605C115.057 352.293 115.189 351.998 115.379 351.741C115.57 351.485 115.814 351.273 116.094 351.121C116.375 350.968 116.685 350.879 117.004 350.859L125.673 350.281L137.637 368.533V352.35L134.586 352.003C134.539 351.726 134.553 351.442 134.625 351.17C134.696 350.898 134.825 350.645 135.002 350.426C135.179 350.208 135.4 350.029 135.651 349.903C135.902 349.776 136.177 349.704 136.458 349.691L144.55 349.217Z" fill="black"/>
</g>
</g>
<g filter="url(#filter4_d)">
<g clip-path="url(#clip4)">
<rect x="249" y="247" width="215" height="215" rx="6.93548" fill="white"/>
<g clip-path="url(#clip5)">
<path d="M337.659 380.103L327.602 362.695L346.444 330.052L356.5 347.46L337.659 380.103Z" fill="#0D9661"/>
<path d="M337.659 380.103L347.704 362.695H385.398L375.341 380.103H337.659Z" fill="#3078DE"/>
<path d="M385.398 362.695H365.285L346.444 330.052H366.557L385.398 362.695Z" fill="#F2BA42"/>
<path d="M356.5 362.695H347.704L337.659 380.103L356.5 362.695Z" fill="#2E6ECC"/>
<path d="M365.285 362.695H385.398L360.893 355.078L365.285 362.695Z" fill="#DBA83D"/>
<path d="M352.108 355.078L356.5 347.46L346.444 330.052L352.108 355.078Z" fill="#0D8A59"/>
</g>
<path d="M278.679 276.025V274.798H274.594V276.141H276.96L276.954 276.346C276.926 277.737 275.903 278.671 274.403 278.671C272.65 278.671 271.552 277.28 271.552 275.016C271.552 272.786 272.63 271.394 274.348 271.394C275.61 271.394 276.49 272.022 276.844 273.161H278.597C278.283 271.156 276.619 269.867 274.348 269.867C271.545 269.867 269.752 271.879 269.752 275.03C269.752 278.214 271.525 280.199 274.376 280.199C277.001 280.199 278.679 278.569 278.679 276.025ZM283.767 280.104C285.997 280.104 287.354 278.644 287.354 276.223C287.354 273.816 285.99 272.356 283.767 272.356C281.55 272.356 280.179 273.822 280.179 276.223C280.179 278.644 281.53 280.104 283.767 280.104ZM283.767 278.719C282.587 278.719 281.912 277.805 281.912 276.23C281.912 274.654 282.587 273.741 283.767 273.741C284.94 273.741 285.615 274.654 285.615 276.23C285.615 277.805 284.947 278.719 283.767 278.719ZM292.278 280.104C294.508 280.104 295.866 278.644 295.866 276.223C295.866 273.816 294.502 272.356 292.278 272.356C290.062 272.356 288.691 273.822 288.691 276.223C288.691 278.644 290.041 280.104 292.278 280.104ZM292.278 278.719C291.098 278.719 290.423 277.805 290.423 276.23C290.423 274.654 291.098 273.741 292.278 273.741C293.451 273.741 294.127 274.654 294.127 276.23C294.127 277.805 293.458 278.719 292.278 278.719ZM300.776 282.791C302.952 282.791 304.329 281.706 304.329 279.995V272.499H302.699V273.693H302.583C302.174 272.881 301.288 272.376 300.271 272.376C298.369 272.376 297.189 273.863 297.189 276.148C297.189 278.385 298.362 279.844 300.244 279.844C301.281 279.844 302.092 279.408 302.522 278.603H302.638V280.022C302.638 280.97 301.963 281.529 300.803 281.529C299.876 281.529 299.276 281.195 299.167 280.67H297.468C297.605 281.952 298.86 282.791 300.776 282.791ZM300.776 278.501C299.596 278.501 298.928 277.587 298.928 276.141C298.928 274.702 299.596 273.788 300.776 273.788C301.949 273.788 302.665 274.702 302.665 276.148C302.665 277.587 301.956 278.501 300.776 278.501ZM306.478 279.954H308.169V269.614H306.478V279.954ZM315.173 277.914C314.928 278.474 314.348 278.787 313.509 278.787C312.398 278.787 311.681 277.996 311.64 276.735V276.646H316.851V276.107C316.851 273.768 315.576 272.356 313.448 272.356C311.286 272.356 309.942 273.863 309.942 276.257C309.942 278.644 311.265 280.104 313.461 280.104C315.221 280.104 316.469 279.258 316.776 277.914H315.173ZM313.441 273.672C314.457 273.672 315.126 274.388 315.16 275.521H311.647C311.722 274.402 312.432 273.672 313.441 273.672ZM322.45 270.112V279.954H326.14C329.086 279.954 330.771 278.146 330.771 274.989C330.771 271.899 329.066 270.112 326.14 270.112H322.45ZM324.21 271.592H325.908C327.838 271.592 328.977 272.847 328.977 275.016C328.977 277.232 327.865 278.474 325.908 278.474H324.21V271.592ZM332.612 279.954H334.304V275.623C334.304 274.573 335.067 273.891 336.165 273.891C336.452 273.891 336.902 273.938 337.032 273.986V272.445C336.875 272.404 336.575 272.376 336.329 272.376C335.368 272.376 334.563 272.922 334.358 273.659H334.242V272.499H332.612V279.954ZM339.282 271.251C339.841 271.251 340.298 270.808 340.298 270.249C340.298 269.696 339.841 269.246 339.282 269.246C338.73 269.246 338.273 269.696 338.273 270.249C338.273 270.808 338.73 271.251 339.282 271.251ZM338.443 279.954H340.128V272.499H338.443V279.954ZM348.735 272.499H346.948L345.236 278.296H345.12L343.395 272.499H341.581L344.234 279.954H346.096L348.735 272.499ZM354.73 277.914C354.484 278.474 353.904 278.787 353.066 278.787C351.954 278.787 351.238 277.996 351.197 276.735V276.646H356.407V276.107C356.407 273.768 355.132 272.356 353.004 272.356C350.842 272.356 349.499 273.863 349.499 276.257C349.499 278.644 350.822 280.104 353.018 280.104C354.777 280.104 356.026 279.258 356.332 277.914H354.73ZM352.997 273.672C354.014 273.672 354.682 274.388 354.716 275.521H351.204C351.279 274.402 351.988 273.672 352.997 273.672Z" fill="white"/>
<path d="M271.422 301.04H270.195V307.499C270.195 309.599 271.661 311.114 274.103 311.114C276.544 311.114 278.011 309.599 278.011 307.499V301.04H276.783V307.417C276.783 308.904 275.808 309.981 274.103 309.981C272.398 309.981 271.422 308.904 271.422 307.417V301.04ZM280.036 308.31C280.166 310.009 281.605 311.114 283.692 311.114C285.942 311.114 287.368 309.961 287.368 308.154C287.368 306.708 286.549 305.917 284.51 305.405L283.48 305.132C282.123 304.785 281.584 304.341 281.584 303.571C281.584 302.575 282.451 301.92 283.76 301.92C284.988 301.92 285.82 302.52 285.99 303.53H287.225C287.122 301.941 285.704 300.808 283.801 300.808C281.721 300.808 280.323 301.941 280.323 303.611C280.323 305.01 281.093 305.814 282.873 306.264L284.135 306.592C285.492 306.933 286.106 307.465 286.106 308.304C286.106 309.279 285.131 309.995 283.808 309.995C282.41 309.995 281.428 309.34 281.277 308.31H280.036ZM289.414 301.04V310.882H292.79C295.716 310.882 297.434 309.061 297.434 305.958C297.434 302.861 295.709 301.04 292.79 301.04H289.414ZM290.641 302.145H292.708C294.89 302.145 296.179 303.564 296.179 305.971C296.179 308.372 294.904 309.777 292.708 309.777H290.641V302.145ZM306.382 311.871H307.201V310.691C308.81 310.568 310.147 309.675 310.147 308.031C310.147 306.599 309.165 305.876 307.412 305.453L307.201 305.405V302.302C308.121 302.418 308.776 302.957 308.865 303.877H310.051C310.004 302.37 308.776 301.374 307.201 301.231V300.051H306.382V301.238C304.766 301.381 303.613 302.35 303.613 303.816C303.613 305.16 304.527 305.917 306.225 306.326L306.382 306.367V309.62C305.202 309.49 304.677 308.842 304.554 307.99H303.368C303.415 309.579 304.759 310.541 306.382 310.684V311.871ZM304.8 303.734C304.8 303.073 305.346 302.445 306.382 302.309V305.207C305.209 304.921 304.8 304.403 304.8 303.734ZM307.242 306.571C308.592 306.899 308.96 307.376 308.96 308.126C308.96 308.911 308.469 309.531 307.201 309.627V306.565L307.242 306.571ZM314.757 310.882H315.985V301.04H314.764L312.145 302.923V304.218L314.648 302.404H314.757V310.882ZM322.232 311.114C324.442 311.114 325.71 309.245 325.71 305.978C325.71 302.718 324.421 300.808 322.232 300.808C320.029 300.808 318.74 302.711 318.74 305.958C318.74 309.231 320.016 311.114 322.232 311.114ZM322.232 310.043C320.779 310.043 319.975 308.59 319.975 305.958C319.975 303.359 320.793 301.886 322.232 301.886C323.671 301.886 324.476 303.345 324.476 305.958C324.476 308.597 323.685 310.043 322.232 310.043ZM327.674 312.975L331.221 300.611H330.225L326.679 312.975H327.674ZM332.38 310.882H333.553V306.326C333.553 305.289 334.297 304.457 335.258 304.457C336.186 304.457 336.793 305.016 336.793 305.889V310.882H337.966V306.155C337.966 305.221 338.648 304.457 339.671 304.457C340.708 304.457 341.219 304.989 341.219 306.074V310.882H342.392V305.801C342.392 304.259 341.553 303.4 340.053 303.4C339.037 303.4 338.198 303.912 337.802 304.689H337.693C337.352 303.925 336.657 303.4 335.661 303.4C334.679 303.4 333.942 303.871 333.608 304.689H333.499V303.53H332.38V310.882ZM347.555 311.011C349.649 311.011 350.945 309.565 350.945 307.206C350.945 304.839 349.649 303.4 347.555 303.4C345.461 303.4 344.165 304.839 344.165 307.206C344.165 309.565 345.461 311.011 347.555 311.011ZM347.555 309.954C346.164 309.954 345.379 308.945 345.379 307.206C345.379 305.46 346.164 304.457 347.555 304.457C348.946 304.457 349.731 305.46 349.731 307.206C349.731 308.945 348.946 309.954 347.555 309.954ZM271.422 327.882V320.25H271.532L276.872 327.882H278.065V318.04H276.851V325.699H276.742L271.402 318.04H270.209V327.882H271.422ZM285.295 325.979C284.988 326.627 284.347 326.975 283.399 326.975C282.15 326.975 281.339 326.054 281.277 324.601V324.547H286.563V324.097C286.563 321.812 285.356 320.4 283.371 320.4C281.353 320.4 280.057 321.9 280.057 324.212C280.057 326.538 281.332 328.011 283.371 328.011C284.981 328.011 286.127 327.234 286.468 325.979H285.295ZM283.358 321.437C284.524 321.437 285.301 322.296 285.329 323.599H281.277C281.366 322.296 282.185 321.437 283.358 321.437ZM290.73 325.126L292.469 327.902H293.861L291.33 324.178L293.826 320.55H292.497L290.771 323.285H290.662L288.916 320.55H287.518L290.062 324.226L287.545 327.902H288.875L290.621 325.126H290.73ZM295.947 318.627V320.53H294.761V321.512H295.947V325.972C295.947 327.377 296.554 327.936 298.069 327.936C298.3 327.936 298.525 327.909 298.757 327.868V326.879C298.539 326.9 298.423 326.906 298.212 326.906C297.448 326.906 297.121 326.538 297.121 325.672V321.512H298.757V320.53H297.121V318.627H295.947ZM308.053 320.4C307.051 320.4 306.171 320.912 305.7 321.757H305.591V320.53H304.473V330.337H305.646V326.777H305.755C306.157 327.554 307.003 328.011 308.053 328.011C309.922 328.011 311.143 326.504 311.143 324.206C311.143 321.894 309.929 320.4 308.053 320.4ZM307.773 326.954C306.45 326.954 305.612 325.89 305.612 324.206C305.612 322.514 306.45 321.457 307.78 321.457C309.124 321.457 309.929 322.487 309.929 324.206C309.929 325.924 309.124 326.954 307.773 326.954ZM315.03 328.011C316.012 328.011 316.817 327.582 317.294 326.797H317.403V327.882H318.522V322.848C318.522 321.321 317.519 320.4 315.726 320.4C314.157 320.4 312.998 321.178 312.841 322.357H314.028C314.191 321.778 314.805 321.444 315.685 321.444C316.783 321.444 317.349 321.941 317.349 322.848V323.517L315.228 323.646C313.516 323.749 312.548 324.506 312.548 325.822C312.548 327.166 313.605 328.011 315.03 328.011ZM315.248 326.981C314.396 326.981 313.762 326.545 313.762 325.795C313.762 325.058 314.253 324.669 315.371 324.594L317.349 324.465V325.14C317.349 326.19 316.455 326.981 315.248 326.981ZM321.045 330.541C322.348 330.541 322.935 330.037 323.562 328.332L326.433 320.53H325.185L323.173 326.579H323.064L321.045 320.53H319.777L322.498 327.888L322.362 328.325C322.055 329.212 321.686 329.532 321.011 329.532C320.848 329.532 320.663 329.525 320.52 329.498V330.501C320.684 330.528 320.888 330.541 321.045 330.541ZM328.002 327.882H329.175V323.326C329.175 322.289 329.918 321.457 330.88 321.457C331.807 321.457 332.414 322.016 332.414 322.889V327.882H333.587V323.155C333.587 322.221 334.269 321.457 335.293 321.457C336.329 321.457 336.841 321.989 336.841 323.074V327.882H338.014V322.801C338.014 321.259 337.175 320.4 335.674 320.4C334.658 320.4 333.819 320.912 333.424 321.689H333.315C332.974 320.925 332.278 320.4 331.282 320.4C330.3 320.4 329.564 320.871 329.229 321.689H329.12V320.53H328.002V327.882ZM345.025 325.979C344.718 326.627 344.077 326.975 343.129 326.975C341.881 326.975 341.069 326.054 341.008 324.601V324.547H346.293V324.097C346.293 321.812 345.086 320.4 343.101 320.4C341.083 320.4 339.787 321.9 339.787 324.212C339.787 326.538 341.062 328.011 343.101 328.011C344.711 328.011 345.857 327.234 346.198 325.979H345.025ZM343.088 321.437C344.254 321.437 345.032 322.296 345.059 323.599H341.008C341.096 322.296 341.915 321.437 343.088 321.437ZM348.135 327.882H349.308V323.53C349.308 322.241 350.065 321.457 351.238 321.457C352.411 321.457 352.97 322.085 352.97 323.408V327.882H354.143V323.121C354.143 321.375 353.222 320.4 351.572 320.4C350.447 320.4 349.731 320.877 349.362 321.689H349.253V320.53H348.135V327.882ZM356.783 318.627V320.53H355.596V321.512H356.783V325.972C356.783 327.377 357.39 327.936 358.904 327.936C359.135 327.936 359.361 327.909 359.592 327.868V326.879C359.374 326.9 359.258 326.906 359.047 326.906C358.283 326.906 357.956 326.538 357.956 325.672V321.512H359.592V320.53H357.956V318.627H356.783ZM365.921 319.111C366.372 319.111 366.74 318.743 366.74 318.293C366.74 317.843 366.372 317.474 365.921 317.474C365.471 317.474 365.103 317.843 365.103 318.293C365.103 318.743 365.471 319.111 365.921 319.111ZM365.335 327.882H366.508V320.53H365.335V327.882ZM368.745 327.882H369.918V323.53C369.918 322.241 370.675 321.457 371.848 321.457C373.021 321.457 373.58 322.085 373.58 323.408V327.882H374.753V323.121C374.753 321.375 373.833 320.4 372.182 320.4C371.057 320.4 370.341 320.877 369.973 321.689H369.863V320.53H368.745V327.882ZM382.903 323.346H384.124C385.509 323.346 386.361 324.056 386.361 325.195C386.361 326.299 385.441 327.043 384.145 327.043C382.876 327.043 381.99 326.381 381.88 325.345H380.694C380.782 327.016 382.16 328.114 384.158 328.114C386.116 328.114 387.623 326.879 387.623 325.229C387.623 323.858 386.777 322.992 385.502 322.787V322.678C386.511 322.385 387.248 321.6 387.255 320.414C387.261 319.036 386.143 317.808 384.199 317.808C382.208 317.808 380.987 318.988 380.864 320.591H382.058C382.16 319.486 382.931 318.879 384.117 318.879C385.304 318.879 386.007 319.629 386.007 320.55C386.007 321.573 385.202 322.296 384.07 322.296H382.903V323.346ZM396.264 328.011C397.28 328.011 398.153 327.527 398.617 326.709H398.726V327.882H399.845V317.611H398.671V321.689H398.569C398.153 320.884 397.287 320.4 396.264 320.4C394.395 320.4 393.174 321.9 393.174 324.206C393.174 326.518 394.382 328.011 396.264 328.011ZM396.537 321.457C397.867 321.457 398.699 322.521 398.699 324.206C398.699 325.904 397.874 326.954 396.537 326.954C395.193 326.954 394.388 325.924 394.388 324.206C394.388 322.494 395.2 321.457 396.537 321.457ZM404.168 328.011C405.151 328.011 405.955 327.582 406.433 326.797H406.542V327.882H407.66V322.848C407.66 321.321 406.658 320.4 404.864 320.4C403.295 320.4 402.136 321.178 401.979 322.357H403.166C403.33 321.778 403.943 321.444 404.823 321.444C405.921 321.444 406.487 321.941 406.487 322.848V323.517L404.366 323.646C402.654 323.749 401.686 324.506 401.686 325.822C401.686 327.166 402.743 328.011 404.168 328.011ZM404.387 326.981C403.534 326.981 402.9 326.545 402.9 325.795C402.9 325.058 403.391 324.669 404.509 324.594L406.487 324.465V325.14C406.487 326.19 405.594 326.981 404.387 326.981ZM410.184 330.541C411.486 330.541 412.073 330.037 412.7 328.332L415.572 320.53H414.324L412.312 326.579H412.203L410.184 320.53H408.915L411.636 327.888L411.5 328.325C411.193 329.212 410.825 329.532 410.15 329.532C409.986 329.532 409.802 329.525 409.659 329.498V330.501C409.822 330.528 410.027 330.541 410.184 330.541ZM416.765 322.542C416.765 323.605 417.393 324.199 418.77 324.533L420.032 324.84C420.816 325.031 421.198 325.372 421.198 325.877C421.198 326.552 420.489 327.022 419.5 327.022C418.559 327.022 417.972 326.627 417.775 326.006H416.567C416.697 327.227 417.822 328.011 419.459 328.011C421.13 328.011 422.405 327.104 422.405 325.788C422.405 324.731 421.737 324.131 420.353 323.796L419.22 323.524C418.354 323.312 417.945 322.998 417.945 322.494C417.945 321.839 418.627 321.396 419.5 321.396C420.387 321.396 420.959 321.785 421.116 322.371H422.276C422.119 321.164 421.048 320.4 419.507 320.4C417.945 320.4 416.765 321.321 416.765 322.542Z" fill="white"/>
<path d="M274.266 437.587L277.895 427.746H276.606L273.714 435.998H273.605L270.713 427.746H269.424L273.052 437.587H274.266ZM280.084 428.816C280.534 428.816 280.902 428.448 280.902 427.998C280.902 427.548 280.534 427.18 280.084 427.18C279.634 427.18 279.266 427.548 279.266 427.998C279.266 428.448 279.634 428.816 280.084 428.816ZM279.497 437.587H280.671V430.235H279.497V437.587ZM287.777 435.684C287.47 436.332 286.829 436.68 285.881 436.68C284.633 436.68 283.821 435.759 283.76 434.307V434.252H289.046V433.802C289.046 431.517 287.838 430.105 285.854 430.105C283.835 430.105 282.539 431.606 282.539 433.918C282.539 436.243 283.815 437.717 285.854 437.717C287.463 437.717 288.609 436.939 288.95 435.684H287.777ZM285.84 431.142C287.006 431.142 287.784 432.001 287.811 433.304H283.76C283.849 432.001 284.667 431.142 285.84 431.142ZM300.135 430.235H298.955L297.509 436.114H297.4L295.757 430.235H294.631L292.988 436.114H292.878L291.433 430.235H290.246L292.306 437.587H293.492L295.129 431.899H295.238L296.882 437.587H298.075L300.135 430.235ZM305.796 427.746V437.587H309.172C312.097 437.587 313.816 435.766 313.816 432.663C313.816 429.567 312.091 427.746 309.172 427.746H305.796ZM307.023 428.85H309.09C311.272 428.85 312.561 430.269 312.561 432.677C312.561 435.077 311.286 436.482 309.09 436.482H307.023V428.85ZM320.663 435.684C320.357 436.332 319.715 436.68 318.767 436.68C317.519 436.68 316.708 435.759 316.646 434.307V434.252H321.932V433.802C321.932 431.517 320.725 430.105 318.74 430.105C316.721 430.105 315.426 431.606 315.426 433.918C315.426 436.243 316.701 437.717 318.74 437.717C320.35 437.717 321.495 436.939 321.836 435.684H320.663ZM318.727 431.142C319.893 431.142 320.67 432.001 320.698 433.304H316.646C316.735 432.001 317.553 431.142 318.727 431.142ZM324.264 428.332V430.235H323.078V431.217H324.264V435.677C324.264 437.082 324.871 437.642 326.385 437.642C326.617 437.642 326.842 437.614 327.074 437.573V436.584C326.856 436.605 326.74 436.612 326.529 436.612C325.765 436.612 325.437 436.243 325.437 435.377V431.217H327.074V430.235H325.437V428.332H324.264ZM330.894 437.717C331.876 437.717 332.68 437.287 333.158 436.503H333.267V437.587H334.385V432.554C334.385 431.026 333.383 430.105 331.589 430.105C330.021 430.105 328.861 430.883 328.704 432.063H329.891C330.055 431.483 330.668 431.149 331.548 431.149C332.646 431.149 333.212 431.647 333.212 432.554V433.222L331.091 433.352C329.379 433.454 328.411 434.211 328.411 435.527C328.411 436.871 329.468 437.717 330.894 437.717ZM331.112 436.687C330.259 436.687 329.625 436.25 329.625 435.5C329.625 434.763 330.116 434.375 331.235 434.3L333.212 434.17V434.845C333.212 435.896 332.319 436.687 331.112 436.687ZM337.168 428.816C337.618 428.816 337.986 428.448 337.986 427.998C337.986 427.548 337.618 427.18 337.168 427.18C336.718 427.18 336.35 427.548 336.35 427.998C336.35 428.448 336.718 428.816 337.168 428.816ZM336.581 437.587H337.755V430.235H336.581V437.587ZM340.06 437.587H341.233V427.316H340.06V437.587ZM343.34 432.247C343.34 433.311 343.968 433.904 345.345 434.238L346.607 434.545C347.391 434.736 347.773 435.077 347.773 435.582C347.773 436.257 347.064 436.728 346.075 436.728C345.134 436.728 344.547 436.332 344.35 435.711H343.142C343.272 436.932 344.397 437.717 346.034 437.717C347.705 437.717 348.98 436.81 348.98 435.493C348.98 434.436 348.312 433.836 346.928 433.502L345.795 433.229C344.929 433.018 344.52 432.704 344.52 432.199C344.52 431.544 345.202 431.101 346.075 431.101C346.962 431.101 347.535 431.49 347.691 432.076H348.851C348.694 430.869 347.623 430.105 346.082 430.105C344.52 430.105 343.34 431.026 343.34 432.247Z" fill="white"/>
</g>
</g>
<defs>
<filter id="filter0_d" x="0" y="0" width="255" height="255" filterUnits="userSpaceOnUse" color-interpolation-filters="sRGB">
<feFlood flood-opacity="0" result="BackgroundImageFix"/>
<feColorMatrix in="SourceAlpha" type="matrix" values="0 0 0 0 0 0 0 0 0 0 0 0 0 0 0 0 0 0 127 0"/>
<feOffset dx="2" dy="4"/>
<feGaussianBlur stdDeviation="10"/>
<feColorMatrix type="matrix" values="0 0 0 0 0.184314 0 0 0 0 0.0156863 0 0 0 0 0.34902 0 0 0 0.15 0"/>
<feBlend mode="normal" in2="BackgroundImageFix" result="effect1_dropShadow"/>
<feBlend mode="normal" in="SourceGraphic" in2="effect1_dropShadow" result="shape"/>
</filter>
<filter id="filter1_d" x="231" y="0" width="255" height="255" filterUnits="userSpaceOnUse" color-interpolation-filters="sRGB">
<feFlood flood-opacity="0" result="BackgroundImageFix"/>
<feColorMatrix in="SourceAlpha" type="matrix" values="0 0 0 0 0 0 0 0 0 0 0 0 0 0 0 0 0 0 127 0"/>
<feOffset dx="2" dy="4"/>
<feGaussianBlur stdDeviation="10"/>
<feColorMatrix type="matrix" values="0 0 0 0 0.184314 0 0 0 0 0.0156863 0 0 0 0 0.34902 0 0 0 0.15 0"/>
<feBlend mode="normal" in2="BackgroundImageFix" result="effect1_dropShadow"/>
<feBlend mode="normal" in="SourceGraphic" in2="effect1_dropShadow" result="shape"/>
</filter>
<filter id="filter2_d" x="244.376" y="16" width="224.247" height="224.247" filterUnits="userSpaceOnUse" color-interpolation-filters="sRGB">
<feFlood flood-opacity="0" result="BackgroundImageFix"/>
<feColorMatrix in="SourceAlpha" type="matrix" values="0 0 0 0 0 0 0 0 0 0 0 0 0 0 0 0 0 0 127 0"/>
<feOffset dy="4.62366"/>
<feGaussianBlur stdDeviation="2.31183"/>
<feColorMatrix type="matrix" values="0 0 0 0 0 0 0 0 0 0 0 0 0 0 0 0 0 0 0.25 0"/>
<feBlend mode="normal" in2="BackgroundImageFix" result="effect1_dropShadow"/>
<feBlend mode="normal" in="SourceGraphic" in2="effect1_dropShadow" result="shape"/>
</filter>
<filter id="filter3_d" x="0" y="231" width="255" height="255" filterUnits="userSpaceOnUse" color-interpolation-filters="sRGB">
<feFlood flood-opacity="0" result="BackgroundImageFix"/>
<feColorMatrix in="SourceAlpha" type="matrix" values="0 0 0 0 0 0 0 0 0 0 0 0 0 0 0 0 0 0 127 0"/>
<feOffset dx="2" dy="4"/>
<feGaussianBlur stdDeviation="10"/>
<feColorMatrix type="matrix" values="0 0 0 0 0.184314 0 0 0 0 0.0156863 0 0 0 0 0.34902 0 0 0 0.15 0"/>
<feBlend mode="normal" in2="BackgroundImageFix" result="effect1_dropShadow"/>
<feBlend mode="normal" in="SourceGraphic" in2="effect1_dropShadow" result="shape"/>
</filter>
<filter id="filter4_d" x="231" y="231" width="255" height="255" filterUnits="userSpaceOnUse" color-interpolation-filters="sRGB">
<feFlood flood-opacity="0" result="BackgroundImageFix"/>
<feColorMatrix in="SourceAlpha" type="matrix" values="0 0 0 0 0 0 0 0 0 0 0 0 0 0 0 0 0 0 127 0"/>
<feOffset dx="2" dy="4"/>
<feGaussianBlur stdDeviation="10"/>
<feColorMatrix type="matrix" values="0 0 0 0 0.184314 0 0 0 0 0.0156863 0 0 0 0 0.34902 0 0 0 0.15 0"/>
<feBlend mode="normal" in2="BackgroundImageFix" result="effect1_dropShadow"/>
<feBlend mode="normal" in="SourceGraphic" in2="effect1_dropShadow" result="shape"/>
</filter>
<radialGradient id="paint0_radial" cx="0" cy="0" r="1" gradientUnits="userSpaceOnUse" gradientTransform="translate(383.448 148.698) rotate(-18.4349) scale(7.22404 263.196)">
<stop/>
<stop offset="1" stop-opacity="0"/>
</radialGradient>
<radialGradient id="paint1_radial" cx="0" cy="0" r="1" gradientUnits="userSpaceOnUse" gradientTransform="translate(383.448 148.698) rotate(-18.4349) scale(7.22404 263.196)">
<stop/>
<stop offset="1" stop-opacity="0"/>
</radialGradient>
<clipPath id="clip0">
<rect width="57.7957" height="57.7957" fill="white" transform="translate(96.6023 94.6022)"/>
</clipPath>
<clipPath id="clip1">
<rect x="249" y="16" width="215" height="215" rx="6" fill="white"/>
</clipPath>
<clipPath id="clip2">
<rect width="31.9643" height="57.7957" fill="white" transform="translate(340.317 94.6022)"/>
</clipPath>
<clipPath id="clip3">
<rect width="57.7957" height="60.2" fill="white" transform="translate(96.6023 329.07)"/>
</clipPath>
<clipPath id="clip4">
<rect x="249" y="247" width="215" height="215" rx="5.98608" fill="white"/>
</clipPath>
<clipPath id="clip5">
<rect width="57.7957" height="50.0511" fill="white" transform="translate(327.602 330.052)"/>
</clipPath>
</defs>
</svg>
