<svg width="121" height="77" viewBox="0 0 121 77" fill="none" xmlns="http://www.w3.org/2000/svg">
<g clip-path="url(#clip0)">
<path d="M91.044 18L88.134 41.55H84.198L87.102 18H91.044Z" fill="white"/>
<path d="M97.5001 27.564L96.6601 34.536C96.5341 35.67 96.5041 36.024 96.5041 36.216C96.4842 36.5276 96.5271 36.84 96.6301 37.1348C96.7332 37.4296 96.8944 37.7006 97.1041 37.932C97.3702 38.1743 97.6816 38.3616 98.0204 38.4831C98.3592 38.6046 98.7186 38.6579 99.0781 38.64C99.8724 38.6679 100.647 38.391 101.244 37.866C101.982 37.158 102.144 36.186 102.306 34.926L103.2 27.564H107.142L106.2 35.28C105.876 37.866 105.264 39.87 103.164 41.064C101.874 41.7145 100.444 42.036 99.0001 42C97.3757 42.0615 95.7692 41.6442 94.3801 40.8C93.7796 40.3587 93.2955 39.778 92.9694 39.108C92.6433 38.438 92.485 37.6988 92.5081 36.954C92.5282 36.2188 92.5923 35.4855 92.7001 34.758L93.5761 27.558L97.5001 27.564Z" fill="white"/>
<path d="M118.146 30.9541C117.859 30.6564 117.519 30.4144 117.144 30.2401C116.731 30.0405 116.277 29.9418 115.818 29.9521C115.336 29.9383 114.866 30.098 114.492 30.4021C114.3 30.6394 114.198 30.9369 114.204 31.2421C114.192 31.3754 114.212 31.5096 114.262 31.6337C114.312 31.7578 114.391 31.8683 114.492 31.9561C114.831 32.2033 115.217 32.3788 115.626 32.4721L116.826 32.8561C117.627 33.1226 118.364 33.5516 118.992 34.1161C119.644 34.8422 119.991 35.7925 119.958 36.7681C119.974 37.4353 119.853 38.0987 119.603 38.7177C119.353 39.3367 118.98 39.8983 118.506 40.3681C117.89 40.9365 117.165 41.3741 116.375 41.6546C115.585 41.9351 114.747 42.0526 113.91 42.0001C112.775 42.0278 111.648 41.7959 110.616 41.3221C109.823 40.8886 109.104 40.3316 108.486 39.6721L110.844 37.2721C111.187 37.7464 111.627 38.1431 112.134 38.4361C112.629 38.7109 113.182 38.8651 113.748 38.8861C114.285 38.9069 114.816 38.7601 115.266 38.4661C115.44 38.3183 115.579 38.1344 115.675 37.9271C115.77 37.7198 115.819 37.4942 115.818 37.2661C115.821 37.1037 115.792 36.9423 115.731 36.7917C115.67 36.6412 115.579 36.5045 115.464 36.3901C115.041 36.0883 114.57 35.8592 114.072 35.7121L113.106 35.3281C112.42 35.0849 111.793 34.7006 111.264 34.2001C110.942 33.8931 110.691 33.519 110.529 33.1043C110.367 32.6895 110.299 32.2443 110.328 31.8001C110.323 31.1803 110.444 30.566 110.682 29.9938C110.92 29.4216 111.271 28.9034 111.714 28.4701C112.811 27.5172 114.236 27.0306 115.686 27.1141C116.622 27.0999 117.553 27.2544 118.434 27.5701C119.054 27.8186 119.64 28.1431 120.18 28.5361L118.146 30.9541Z" fill="white"/>
<path d="M82.6741 22.338C82.1793 21.298 81.4016 20.4184 80.4301 19.8C79.1706 19.1007 77.7547 18.7312 76.3141 18.726C76.3141 18.726 75.9781 18.726 75.5641 18.696C75.1501 18.666 73.9921 18.696 73.9921 18.696C72.9603 18.6885 71.9618 19.0612 71.1871 19.7428C70.4125 20.4245 69.9159 21.3675 69.7921 22.392L69.5341 24.474L69.4921 24.798L69.1321 27.7559L68.8681 29.8799H60.6001C61.6931 31.4961 63.3342 32.6619 65.2201 33.162C66.2553 33.4748 67.3307 33.6345 68.4121 33.6359L67.4401 41.5319H71.6401L72.6001 33.6539H74.8861C78.0861 33.6539 80.4441 32.64 81.9601 30.6119C82.9717 29.2389 83.503 27.5711 83.4721 25.866C83.4816 24.6442 83.2085 23.4367 82.6741 22.338ZM78.1801 28.8359C77.2965 29.5854 76.1562 29.9619 75.0001 29.886H73.1041L73.9801 22.644H75.1441C78.8341 22.644 79.2601 24.444 79.2601 25.77C79.3005 26.3278 79.2255 26.888 79.0397 27.4155C78.8538 27.943 78.5612 28.4266 78.1801 28.8359Z" fill="white"/>
<path d="M10.092 30.456C9.79344 30.1451 9.43935 29.8928 9.048 29.712C8.61661 29.5027 8.14134 29.3998 7.662 29.412C7.15884 29.3969 6.66698 29.563 6.276 29.88C6.07497 30.1294 5.9687 30.4418 5.976 30.762C5.96411 30.9 5.98511 31.0388 6.03725 31.1671C6.0894 31.2954 6.17122 31.4095 6.276 31.5C6.63361 31.7624 7.0425 31.9464 7.476 32.04L8.724 32.448C9.5623 32.7215 10.3332 33.1693 10.986 33.762C11.6713 34.5192 12.035 35.5134 12 36.534C12.0143 37.2285 11.887 37.9185 11.6261 38.5622C11.3651 39.2058 10.9758 39.7896 10.482 40.2781C9.83919 40.8736 9.08265 41.3332 8.25781 41.6291C7.43296 41.925 6.55682 42.0512 5.682 42C4.49536 42.0261 3.31813 41.7841 2.238 41.292C1.40738 40.8497 0.652032 40.2786 0 39.6L2.466 37.104C2.82477 37.5962 3.28518 38.0055 3.816 38.304C4.33218 38.5942 4.91025 38.7567 5.502 38.7781C6.06236 38.7974 6.6152 38.6446 7.086 38.3401C7.27577 38.1846 7.42821 37.9885 7.53206 37.7663C7.63591 37.5441 7.68852 37.3013 7.686 37.056C7.68982 36.8867 7.65876 36.7183 7.59477 36.5614C7.53077 36.4045 7.43521 36.2624 7.314 36.144C6.86957 35.8112 6.36992 35.5593 5.838 35.4L4.8 35.01C4.08191 34.7512 3.42733 34.3421 2.88 33.81C2.54462 33.4894 2.28333 33.0993 2.11441 32.6672C1.94548 32.235 1.87299 31.7712 1.902 31.308C1.8966 30.6614 2.0219 30.0204 2.27038 29.4234C2.51887 28.8265 2.88541 28.2859 3.348 27.834C4.49341 26.8364 5.98346 26.3261 7.5 26.412C8.47863 26.3971 9.45202 26.5576 10.374 26.886C11.0118 27.1521 11.6159 27.4925 12.174 27.9L10.092 30.456Z" fill="white"/>
<path d="M20.148 26.91L19.272 34.2C19.14 35.4 19.104 35.754 19.104 35.958C19.0764 36.2831 19.1154 36.6104 19.2186 36.9198C19.3217 37.2293 19.4869 37.5145 19.704 37.758C19.9807 38.0121 20.3051 38.2087 20.6584 38.3364C21.0117 38.4641 21.3868 38.5204 21.762 38.502C22.5921 38.5332 23.4023 38.243 24.024 37.692C24.804 36.948 24.972 35.934 25.14 34.62L26.088 26.922H30.204L29.232 34.98C28.89 37.68 28.254 39.78 26.058 41.022C24.7096 41.7044 23.2127 42.0405 21.702 42C20.0145 42.0617 18.3458 41.6279 16.902 40.752C16.2732 40.2916 15.7659 39.685 15.4241 38.9846C15.0822 38.2842 14.9161 37.511 14.94 36.732C14.9622 35.9647 15.0304 35.1993 15.144 34.44L16.056 26.91H20.148Z" fill="white"/>
<path d="M34.122 26.91H38.238L37.968 29.004C38.4054 28.2273 39.0226 27.5669 39.768 27.078C40.5413 26.6138 41.4352 26.3903 42.336 26.436C42.9921 26.4242 43.6443 26.5404 44.256 26.778L43.056 30.456C42.5631 30.2074 42.018 30.0799 41.466 30.084C40.993 30.0742 40.5228 30.1588 40.0828 30.3329C39.6429 30.5071 39.2422 30.7671 38.904 31.098C37.992 32.01 37.386 33.834 37.218 35.298L36.438 41.508H32.334L34.122 26.91Z" fill="white"/>
<path d="M59.3341 37.614C58.6516 39.0262 57.574 40.21 56.2321 41.022C54.8745 41.7146 53.3633 42.0511 51.8401 42C49.8841 42 47.9581 41.628 46.4041 39.972C45.8155 39.339 45.3578 38.5961 45.0572 37.7857C44.7565 36.9754 44.6188 36.1137 44.6521 35.25C44.5979 32.7888 45.5064 30.4036 47.1841 28.602C47.9563 27.8594 48.8731 27.2838 49.8776 26.9112C50.882 26.5385 51.9524 26.3768 53.0221 26.436C54.7801 26.436 56.6221 26.778 58.0201 28.128C59.6041 29.646 59.9101 31.638 59.9101 33.426C59.9249 33.923 59.9028 34.4203 59.8441 34.914H48.9061C48.8084 35.4347 48.8335 35.971 48.9793 36.4803C49.1251 36.9896 49.3876 37.4579 49.7461 37.848C50.0599 38.1597 50.4357 38.402 50.8491 38.5591C51.2626 38.7162 51.7045 38.7847 52.1461 38.76C52.9159 38.7888 53.6808 38.626 54.3721 38.286C54.9653 37.9047 55.4557 37.3834 55.8001 36.768L59.3341 37.614ZM56.2981 32.28C56.2704 31.4811 55.9451 30.7214 55.3861 30.15C54.7458 29.6065 53.9276 29.3182 53.0881 29.34C52.1665 29.331 51.2753 29.6695 50.5921 30.288C50.0258 30.8364 49.6122 31.523 49.3921 32.28H56.2981Z" fill="white"/>
</g>
<defs>
<clipPath id="clip0">
<rect width="120.18" height="24" fill="white" transform="translate(0 18)"/>
</clipPath>
</defs>
</svg>
