<svg width="552" height="434" viewBox="0 0 552 434" fill="none" xmlns="http://www.w3.org/2000/svg">
<g filter="url(#filter0_d)">
<rect x="18" y="16" width="512" height="129" rx="12" fill="white"/>
<g clip-path="url(#clip0)">
<path d="M67.79 51.1299H63.9551V48.4658H67.5913V47.6064H63.9551V45.1196H67.79V44.2495H62.9883V52H67.79V51.1299ZM70.4971 52V45.9897H70.583L74.7886 52H75.7285V44.2495H74.7725V50.2812H74.6865L70.481 44.2495H69.541V52H70.4971ZM77.7051 44.2495V52H80.3638C82.668 52 84.0215 50.5659 84.0215 48.1221C84.0215 45.6836 82.6626 44.2495 80.3638 44.2495H77.7051ZM78.6719 45.1196H80.2993C82.0181 45.1196 83.0332 46.2368 83.0332 48.1328C83.0332 50.0234 82.0288 51.1299 80.2993 51.1299H78.6719V45.1196ZM85.3267 49.9751C85.4287 51.3125 86.562 52.1826 88.2056 52.1826C89.978 52.1826 91.1006 51.2749 91.1006 49.8516C91.1006 48.7129 90.4561 48.0898 88.8501 47.687L88.0391 47.4722C86.9702 47.1982 86.5459 46.8491 86.5459 46.2422C86.5459 45.458 87.228 44.9424 88.2593 44.9424C89.2261 44.9424 89.8813 45.415 90.0156 46.21H90.9878C90.9072 44.9585 89.79 44.0669 88.2915 44.0669C86.6533 44.0669 85.5522 44.9585 85.5522 46.2744C85.5522 47.3755 86.1592 48.0093 87.561 48.3638L88.5547 48.6216C89.6235 48.8901 90.1069 49.3091 90.1069 49.9697C90.1069 50.7378 89.3389 51.3018 88.2969 51.3018C87.1958 51.3018 86.4224 50.7861 86.3042 49.9751H85.3267ZM99.0713 44.0669C96.8799 44.0669 95.5156 45.6299 95.5156 48.1221C95.5156 50.6035 96.8477 52.1826 99.0713 52.1826C101.284 52.1826 102.627 50.5981 102.627 48.1221C102.627 45.6353 101.273 44.0669 99.0713 44.0669ZM99.0713 44.9585C100.656 44.9585 101.633 46.1831 101.633 48.1221C101.633 50.0449 100.661 51.291 99.0713 51.291C97.46 51.291 96.5093 50.0449 96.5093 48.1221C96.5093 46.1831 97.4922 44.9585 99.0713 44.9585ZM105.259 52V45.9897H105.345L109.55 52H110.49V44.2495H109.534V50.2812H109.448L105.243 44.2495H104.303V52H105.259ZM118.826 44.0669C116.635 44.0669 115.271 45.6299 115.271 48.1221C115.271 50.6035 116.603 52.1826 118.826 52.1826C121.039 52.1826 122.382 50.5981 122.382 48.1221C122.382 45.6353 121.028 44.0669 118.826 44.0669ZM118.826 44.9585C120.411 44.9585 121.388 46.1831 121.388 48.1221C121.388 50.0449 120.416 51.291 118.826 51.291C117.215 51.291 116.264 50.0449 116.264 48.1221C116.264 46.1831 117.247 44.9585 118.826 44.9585ZM127.178 52.1826C128.827 52.1826 130.052 51.2642 130.31 49.8408H129.327C129.08 50.7378 128.258 51.291 127.178 51.291C125.685 51.291 124.75 50.0718 124.75 48.1274C124.75 46.1831 125.685 44.9585 127.173 44.9585C128.242 44.9585 129.069 45.5869 129.327 46.5859H130.31C130.079 45.0928 128.806 44.0669 127.173 44.0669C125.067 44.0669 123.757 45.6245 123.757 48.1274C123.757 50.625 125.073 52.1826 127.178 52.1826ZM134.644 52V45.1196H137.142V44.2495H131.18V45.1196H133.677V52H134.644ZM141.567 44.0669C139.376 44.0669 138.012 45.6299 138.012 48.1221C138.012 50.6035 139.344 52.1826 141.567 52.1826C143.78 52.1826 145.123 50.5981 145.123 48.1221C145.123 45.6353 143.77 44.0669 141.567 44.0669ZM141.567 44.9585C143.152 44.9585 144.129 46.1831 144.129 48.1221C144.129 50.0449 143.157 51.291 141.567 51.291C139.956 51.291 139.005 50.0449 139.005 48.1221C139.005 46.1831 139.988 44.9585 141.567 44.9585ZM149.823 52C151.472 52 152.449 51.189 152.449 49.8247C152.449 48.7988 151.778 48.0737 150.72 47.9395V47.8535C151.466 47.7192 152.057 46.9888 152.057 46.1831C152.057 44.9961 151.187 44.2495 149.764 44.2495H146.799V52H149.823ZM147.766 45.1035H149.56C150.521 45.1035 151.08 45.5601 151.08 46.3496C151.08 47.1714 150.483 47.5903 149.312 47.5903H147.766V45.1035ZM147.766 51.146V48.4229H149.586C150.822 48.4229 151.456 48.8794 151.456 49.7764C151.456 50.6733 150.843 51.146 149.678 51.146H147.766ZM158.83 51.1299H154.995V48.4658H158.631V47.6064H154.995V45.1196H158.83V44.2495H154.028V52H158.83V51.1299ZM161.548 48.9331H163.455L165.114 52H166.248L164.454 48.7827C165.426 48.4766 166.011 47.6387 166.011 46.5591C166.011 45.1626 165.034 44.2495 163.541 44.2495H160.581V52H161.548V48.9331ZM161.548 45.1089H163.412C164.411 45.1089 165.012 45.6621 165.012 46.5913C165.012 47.542 164.448 48.0737 163.455 48.0737H161.548V45.1089ZM173.488 52.1772C175.078 52.1772 176.206 51.0654 176.206 49.5078C176.206 48.0039 175.137 46.9136 173.66 46.9136C172.736 46.9136 171.979 47.354 171.597 48.106H171.511C171.543 46.0005 172.295 44.9263 173.584 44.9263C174.369 44.9263 174.938 45.3291 175.099 46.0488H176.093C175.894 44.8457 174.965 44.0669 173.552 44.0669C171.721 44.0669 170.571 45.5923 170.571 48.2563C170.571 50.8667 171.801 52.1772 173.488 52.1772ZM173.477 51.3286C172.483 51.3286 171.726 50.5444 171.726 49.5078C171.726 48.4819 172.462 47.7515 173.488 47.7515C174.514 47.7515 175.228 48.4819 175.228 49.54C175.228 50.5552 174.471 51.3286 173.477 51.3286Z" fill="#666666"/>
<rect x="122" y="98" width="138" height="16" rx="2" fill="#F7F7F7"/>
<path d="M125.005 91V81.7114H125.138L131.637 91H133.09V79.022H131.612V88.3438H131.479L124.98 79.022H123.527V91H125.005ZM141.889 88.6841C141.515 89.4727 140.735 89.896 139.581 89.896C138.062 89.896 137.074 88.7754 137 87.0073V86.9409H143.433V86.3931C143.433 83.6123 141.963 81.894 139.548 81.894C137.091 81.894 135.514 83.7202 135.514 86.5342C135.514 89.3647 137.066 91.1577 139.548 91.1577C141.507 91.1577 142.901 90.2114 143.316 88.6841H141.889ZM139.531 83.1558C140.951 83.1558 141.897 84.2017 141.93 85.7871H137C137.107 84.2017 138.104 83.1558 139.531 83.1558ZM146.271 79.7358V82.0518H144.827V83.2471H146.271V88.6758C146.271 90.3857 147.01 91.0664 148.853 91.0664C149.135 91.0664 149.409 91.0332 149.691 90.9834V89.7798C149.426 89.8047 149.285 89.813 149.027 89.813C148.098 89.813 147.699 89.3647 147.699 88.3105V83.2471H149.691V82.0518H147.699V79.7358H146.271ZM152.447 91H153.875V83.2471H155.925V82.0518H153.875V81.0972C153.875 80.1177 154.307 79.6196 155.336 79.6196C155.593 79.6196 155.834 79.6279 156.008 79.6611V78.499C155.709 78.4409 155.394 78.416 155.045 78.416C153.344 78.416 152.447 79.271 152.447 81.0557V82.0518H150.961V83.2471H152.447V91ZM158.092 91H159.52V78.499H158.092V91ZM163.039 80.3252C163.587 80.3252 164.035 79.877 164.035 79.3291C164.035 78.7812 163.587 78.333 163.039 78.333C162.491 78.333 162.043 78.7812 162.043 79.3291C162.043 79.877 162.491 80.3252 163.039 80.3252ZM162.325 91H163.753V82.0518H162.325V91ZM169.638 87.6465L171.755 91.0249H173.448L170.369 86.4927L173.407 82.0767H171.788L169.688 85.4053H169.555L167.43 82.0767H165.729L168.825 86.5508L165.762 91.0249H167.38L169.505 87.6465H169.638Z" fill="black"/>
<g filter="url(#filter1_d)">
<g clip-path="url(#clip1)">
<rect x="62" y="72.5" width="48" height="48" rx="14.4" fill="black"/>
</g>
<g clip-path="url(#clip2)">
<path fill-rule="evenodd" clip-rule="evenodd" d="M88.5163 80.5955V87.6033V94.6429L87.9365 93.0056L87.1912 108.678C87.9238 110.754 88.3188 111.863 88.3251 111.863L89.2553 111.92C90.7906 111.997 92.6954 112.156 94.1352 112.334C94.3457 112.369 94.5589 112.387 94.7723 112.385C94.7723 112.385 94.7723 105.199 94.7723 96.4586V80.5318H88.529L88.5163 80.5955Z" fill="#B1060F" stroke="black" stroke-width="0.23" stroke-miterlimit="10"/>
<path fill-rule="evenodd" clip-rule="evenodd" d="M77.2278 80.5768V96.5035C77.2278 105.257 77.2278 112.43 77.2278 112.43C77.2278 112.43 77.7884 112.386 78.4255 112.309L80.4259 112.112C81.1139 112.054 83.1716 111.921 83.4137 111.921C83.4838 111.921 83.4838 111.557 83.4965 105.174V98.4338L83.9935 99.8418C84.0699 100.065 84.0954 100.128 84.1655 100.345L84.9172 84.6731L84.656 83.9469C84.0827 82.2204 83.5666 80.7552 83.522 80.6915V80.5768H77.2278Z" fill="#B1060F" stroke="black" stroke-width="0.23" stroke-miterlimit="10"/>
<path fill-rule="evenodd" clip-rule="evenodd" d="M77.2278 80.5768V89.4958L83.522 106.2V105.174V98.4338L84.0189 99.8418C86.7902 107.684 88.2746 111.889 88.2873 111.901L89.2174 111.959C90.7528 112.035 92.6576 112.195 94.0974 112.373C94.3079 112.408 94.521 112.425 94.7345 112.424C94.7345 112.424 94.7345 108.901 94.7345 103.938L88.5103 85.9282V87.6355V94.6751L87.9306 93.0379C87.3699 91.4452 86.9877 90.3749 84.7134 83.9469C84.0827 82.2204 83.5666 80.7552 83.522 80.6915V80.5768H77.2278Z" fill="url(#paint0_radial)"/>
<path fill-rule="evenodd" clip-rule="evenodd" d="M77.2278 80.5768L83.522 98.4466L84.0189 99.8545C86.7902 107.697 88.2746 111.901 88.2873 111.914L89.2174 111.972C90.7528 112.048 92.6576 112.207 94.0974 112.386C94.3079 112.421 94.521 112.438 94.7345 112.437L88.4912 94.6688L87.9114 93.0315C87.3508 91.4388 86.9686 90.3685 84.6942 83.9405C84.0827 82.2204 83.5666 80.7552 83.522 80.6915V80.5768H77.2278Z" fill="#E50914"/>
<path fill-rule="evenodd" clip-rule="evenodd" d="M88.5163 80.5955V87.6033V94.6429L87.9365 93.0056L87.1912 108.678C87.9238 110.754 88.3188 111.863 88.3251 111.863L89.2553 111.92C90.7906 111.997 92.6954 112.156 94.1352 112.334C94.3457 112.369 94.5589 112.387 94.7723 112.385C94.7723 112.385 94.7723 105.199 94.7723 96.4586V80.5318H88.529L88.5163 80.5955Z" fill="#B1060F" stroke="black" stroke-width="0.23" stroke-miterlimit="10"/>
<path fill-rule="evenodd" clip-rule="evenodd" d="M77.2278 80.5768V96.5035C77.2278 105.257 77.2278 112.43 77.2278 112.43C77.2278 112.43 77.7884 112.386 78.4255 112.309L80.4259 112.112C81.1139 112.054 83.1716 111.921 83.4137 111.921C83.4838 111.921 83.4838 111.557 83.4965 105.174V98.4338L83.9935 99.8418C84.0699 100.065 84.0954 100.128 84.1655 100.345L84.9172 84.6731L84.656 83.9469C84.0827 82.2204 83.5666 80.7552 83.522 80.6915V80.5768H77.2278Z" fill="#B1060F" stroke="black" stroke-width="0.23" stroke-miterlimit="10"/>
<path fill-rule="evenodd" clip-rule="evenodd" d="M77.2278 80.5768V89.4958L83.522 106.2V105.174V98.4338L84.0189 99.8418C86.7902 107.684 88.2746 111.889 88.2873 111.901L89.2174 111.959C90.7528 112.035 92.6576 112.195 94.0974 112.373C94.3079 112.408 94.521 112.425 94.7345 112.424C94.7345 112.424 94.7345 108.901 94.7345 103.938L88.5103 85.9282V87.6355V94.6751L87.9306 93.0379C87.3699 91.4452 86.9877 90.3749 84.7134 83.9469C84.0827 82.2204 83.5666 80.7552 83.522 80.6915V80.5768H77.2278Z" fill="url(#paint1_radial)"/>
<path fill-rule="evenodd" clip-rule="evenodd" d="M77.2278 80.5768L83.522 98.4466L84.0189 99.8545C86.7902 107.697 88.2746 111.901 88.2873 111.914L89.2174 111.972C90.7528 112.048 92.6576 112.207 94.0974 112.386C94.3079 112.421 94.521 112.438 94.7345 112.437L88.4912 94.6688L87.9114 93.0315C87.3508 91.4388 86.9686 90.3685 84.6942 83.9405C84.0827 82.2204 83.5666 80.7552 83.522 80.6915V80.5768H77.2278Z" fill="#E50914"/>
</g>
</g>
<rect x="373" y="86.5" width="41" height="24" rx="12" fill="#FF0000" fill-opacity="0.1"/>
<path d="M382.562 94.3403V103.5H385.996C388.739 103.5 390.307 101.818 390.307 98.8789C390.307 96.0034 388.72 94.3403 385.996 94.3403H382.562ZM384.2 95.7178H385.781C387.577 95.7178 388.637 96.8857 388.637 98.9043C388.637 100.967 387.602 102.123 385.781 102.123H384.2V95.7178ZM396.181 100.529V99.0884H392.01V100.529H396.181ZM400.208 99.4121H401.356C402.486 99.4121 403.172 99.9771 403.172 100.897C403.172 101.786 402.429 102.383 401.376 102.383C400.315 102.383 399.598 101.837 399.528 100.986H397.96C398.037 102.643 399.401 103.729 401.395 103.729C403.375 103.729 404.848 102.586 404.848 101.012C404.848 99.7612 404.067 98.9551 402.823 98.7646V98.6567C403.794 98.3965 404.486 97.6665 404.492 96.562C404.499 95.248 403.4 94.1118 401.452 94.1118C399.465 94.1118 398.221 95.2354 398.138 96.8413H399.674C399.744 95.9272 400.366 95.4194 401.363 95.4194C402.334 95.4194 402.912 96.0161 402.912 96.7715C402.912 97.603 402.264 98.187 401.325 98.187H400.208V99.4121Z" fill="#FF3B30"/>
<path d="M431.93 105.704H432.926V104.268C434.885 104.118 436.512 103.031 436.512 101.03C436.512 99.2871 435.316 98.4072 433.183 97.8926L432.926 97.8345V94.0576C434.046 94.1987 434.843 94.8545 434.951 95.9751H436.396C436.337 94.1406 434.843 92.9287 432.926 92.7544V91.3184H431.93V92.7627C429.962 92.937 428.56 94.1157 428.56 95.9004C428.56 97.5356 429.672 98.457 431.739 98.9551L431.93 99.0049V102.964C430.494 102.807 429.854 102.018 429.705 100.98H428.261C428.319 102.915 429.954 104.085 431.93 104.259V105.704ZM430.004 95.8008C430.004 94.9956 430.668 94.2319 431.93 94.0659V97.5938C430.502 97.2451 430.004 96.6143 430.004 95.8008ZM432.976 99.2539C434.619 99.6523 435.067 100.233 435.067 101.146C435.067 102.101 434.47 102.856 432.926 102.973V99.2456L432.976 99.2539ZM442.123 104.5H443.617V92.522H442.131L438.944 94.813V96.3901L441.99 94.1821H442.123V104.5ZM449.71 98.98H451.196C452.881 98.98 453.918 99.8433 453.918 101.229C453.918 102.574 452.798 103.479 451.221 103.479C449.677 103.479 448.598 102.674 448.465 101.412H447.021C447.128 103.446 448.805 104.782 451.237 104.782C453.62 104.782 455.454 103.28 455.454 101.271C455.454 99.6025 454.425 98.5483 452.873 98.2993V98.1665C454.101 97.8096 454.998 96.855 455.006 95.4106C455.014 93.7339 453.653 92.2397 451.287 92.2397C448.863 92.2397 447.377 93.6758 447.228 95.6265H448.681C448.805 94.2817 449.743 93.543 451.188 93.543C452.632 93.543 453.487 94.4561 453.487 95.5767C453.487 96.8218 452.507 97.7017 451.129 97.7017H449.71V98.98ZM458.459 104.583C459.057 104.583 459.538 104.093 459.538 103.504C459.538 102.906 459.057 102.425 458.459 102.425C457.87 102.425 457.38 102.906 457.38 103.504C457.38 104.093 457.87 104.583 458.459 104.583ZM465.481 104.774C468.412 104.774 470.088 102.417 470.088 98.2993C470.088 94.2236 468.163 92.2397 465.581 92.2397C463.124 92.2397 461.381 93.958 461.381 96.3652C461.381 98.6895 463.033 100.375 465.315 100.375C466.743 100.375 467.914 99.6938 468.503 98.5317H468.636C468.553 101.719 467.449 103.446 465.498 103.446C464.319 103.446 463.406 102.79 463.091 101.711H461.555C461.929 103.595 463.448 104.774 465.481 104.774ZM465.581 99.0796C463.996 99.0796 462.892 97.9507 462.892 96.3154C462.892 94.7466 464.062 93.5513 465.598 93.5513C467.133 93.5513 468.304 94.7632 468.304 96.3652C468.304 97.9507 467.167 99.0796 465.581 99.0796ZM476.322 104.774C479.252 104.774 480.929 102.417 480.929 98.2993C480.929 94.2236 479.003 92.2397 476.422 92.2397C473.965 92.2397 472.222 93.958 472.222 96.3652C472.222 98.6895 473.874 100.375 476.156 100.375C477.584 100.375 478.754 99.6938 479.344 98.5317H479.477C479.394 101.719 478.29 103.446 476.339 103.446C475.16 103.446 474.247 102.79 473.932 101.711H472.396C472.77 103.595 474.289 104.774 476.322 104.774ZM476.422 99.0796C474.836 99.0796 473.732 97.9507 473.732 96.3154C473.732 94.7466 474.903 93.5513 476.438 93.5513C477.974 93.5513 479.145 94.7632 479.145 96.3652C479.145 97.9507 478.007 99.0796 476.422 99.0796Z" fill="black"/>
</g>
</g>
<g filter="url(#filter2_d)">
<rect x="18" y="174" width="512" height="236" rx="12" fill="white"/>
<g clip-path="url(#clip3)">
<path d="M67.79 209.13H63.9551V206.466H67.5913V205.606H63.9551V203.12H67.79V202.25H62.9883V210H67.79V209.13ZM70.4971 210V203.99H70.583L74.7886 210H75.7285V202.25H74.7725V208.281H74.6865L70.481 202.25H69.541V210H70.4971ZM77.7051 202.25V210H80.3638C82.668 210 84.0215 208.566 84.0215 206.122C84.0215 203.684 82.6626 202.25 80.3638 202.25H77.7051ZM78.6719 203.12H80.2993C82.0181 203.12 83.0332 204.237 83.0332 206.133C83.0332 208.023 82.0288 209.13 80.2993 209.13H78.6719V203.12ZM85.3267 207.975C85.4287 209.312 86.562 210.183 88.2056 210.183C89.978 210.183 91.1006 209.275 91.1006 207.852C91.1006 206.713 90.4561 206.09 88.8501 205.687L88.0391 205.472C86.9702 205.198 86.5459 204.849 86.5459 204.242C86.5459 203.458 87.228 202.942 88.2593 202.942C89.2261 202.942 89.8813 203.415 90.0156 204.21H90.9878C90.9072 202.958 89.79 202.067 88.2915 202.067C86.6533 202.067 85.5522 202.958 85.5522 204.274C85.5522 205.375 86.1592 206.009 87.561 206.364L88.5547 206.622C89.6235 206.89 90.1069 207.309 90.1069 207.97C90.1069 208.738 89.3389 209.302 88.2969 209.302C87.1958 209.302 86.4224 208.786 86.3042 207.975H85.3267ZM99.0713 202.067C96.8799 202.067 95.5156 203.63 95.5156 206.122C95.5156 208.604 96.8477 210.183 99.0713 210.183C101.284 210.183 102.627 208.598 102.627 206.122C102.627 203.635 101.273 202.067 99.0713 202.067ZM99.0713 202.958C100.656 202.958 101.633 204.183 101.633 206.122C101.633 208.045 100.661 209.291 99.0713 209.291C97.46 209.291 96.5093 208.045 96.5093 206.122C96.5093 204.183 97.4922 202.958 99.0713 202.958ZM105.259 210V203.99H105.345L109.55 210H110.49V202.25H109.534V208.281H109.448L105.243 202.25H104.303V210H105.259ZM118.826 202.067C116.635 202.067 115.271 203.63 115.271 206.122C115.271 208.604 116.603 210.183 118.826 210.183C121.039 210.183 122.382 208.598 122.382 206.122C122.382 203.635 121.028 202.067 118.826 202.067ZM118.826 202.958C120.411 202.958 121.388 204.183 121.388 206.122C121.388 208.045 120.416 209.291 118.826 209.291C117.215 209.291 116.264 208.045 116.264 206.122C116.264 204.183 117.247 202.958 118.826 202.958ZM127.178 210.183C128.827 210.183 130.052 209.264 130.31 207.841H129.327C129.08 208.738 128.258 209.291 127.178 209.291C125.685 209.291 124.75 208.072 124.75 206.127C124.75 204.183 125.685 202.958 127.173 202.958C128.242 202.958 129.069 203.587 129.327 204.586H130.31C130.079 203.093 128.806 202.067 127.173 202.067C125.067 202.067 123.757 203.625 123.757 206.127C123.757 208.625 125.073 210.183 127.178 210.183ZM134.644 210V203.12H137.142V202.25H131.18V203.12H133.677V210H134.644ZM141.567 202.067C139.376 202.067 138.012 203.63 138.012 206.122C138.012 208.604 139.344 210.183 141.567 210.183C143.78 210.183 145.123 208.598 145.123 206.122C145.123 203.635 143.77 202.067 141.567 202.067ZM141.567 202.958C143.152 202.958 144.129 204.183 144.129 206.122C144.129 208.045 143.157 209.291 141.567 209.291C139.956 209.291 139.005 208.045 139.005 206.122C139.005 204.183 139.988 202.958 141.567 202.958ZM149.823 210C151.472 210 152.449 209.189 152.449 207.825C152.449 206.799 151.778 206.074 150.72 205.939V205.854C151.466 205.719 152.057 204.989 152.057 204.183C152.057 202.996 151.187 202.25 149.764 202.25H146.799V210H149.823ZM147.766 203.104H149.56C150.521 203.104 151.08 203.56 151.08 204.35C151.08 205.171 150.483 205.59 149.312 205.59H147.766V203.104ZM147.766 209.146V206.423H149.586C150.822 206.423 151.456 206.879 151.456 207.776C151.456 208.673 150.843 209.146 149.678 209.146H147.766ZM158.83 209.13H154.995V206.466H158.631V205.606H154.995V203.12H158.83V202.25H154.028V210H158.83V209.13ZM161.548 206.933H163.455L165.114 210H166.248L164.454 206.783C165.426 206.477 166.011 205.639 166.011 204.559C166.011 203.163 165.034 202.25 163.541 202.25H160.581V210H161.548V206.933ZM161.548 203.109H163.412C164.411 203.109 165.012 203.662 165.012 204.591C165.012 205.542 164.448 206.074 163.455 206.074H161.548V203.109ZM172.602 210H173.568V202.25H172.607L170.544 203.732V204.752L172.516 203.324H172.602V210ZM178.488 210.183C180.229 210.183 181.228 208.711 181.228 206.138C181.228 203.571 180.212 202.067 178.488 202.067C176.753 202.067 175.738 203.565 175.738 206.122C175.738 208.7 176.743 210.183 178.488 210.183ZM178.488 209.339C177.344 209.339 176.71 208.195 176.71 206.122C176.71 204.076 177.355 202.916 178.488 202.916C179.622 202.916 180.255 204.065 180.255 206.122C180.255 208.201 179.632 209.339 178.488 209.339Z" fill="#666666"/>
<path d="M125.005 249V239.711H125.138L131.637 249H133.09V237.022H131.612V246.344H131.479L124.98 237.022H123.527V249H125.005ZM139.639 249.158C142.188 249.158 143.765 247.398 143.765 244.526C143.765 241.646 142.188 239.894 139.639 239.894C137.091 239.894 135.514 241.646 135.514 244.526C135.514 247.398 137.091 249.158 139.639 249.158ZM139.639 247.871C137.946 247.871 136.991 246.643 136.991 244.526C136.991 242.401 137.946 241.181 139.639 241.181C141.333 241.181 142.287 242.401 142.287 244.526C142.287 246.643 141.333 247.871 139.639 247.871ZM146.604 237.736V240.052H145.159V241.247H146.604V246.676C146.604 248.386 147.342 249.066 149.185 249.066C149.467 249.066 149.741 249.033 150.023 248.983V247.78C149.758 247.805 149.617 247.813 149.359 247.813C148.43 247.813 148.031 247.365 148.031 246.311V241.247H150.023V240.052H148.031V237.736H146.604ZM152.929 238.325C153.477 238.325 153.925 237.877 153.925 237.329C153.925 236.781 153.477 236.333 152.929 236.333C152.381 236.333 151.933 236.781 151.933 237.329C151.933 237.877 152.381 238.325 152.929 238.325ZM152.215 249H153.643V240.052H152.215V249ZM160.042 249.158C162.591 249.158 164.168 247.398 164.168 244.526C164.168 241.646 162.591 239.894 160.042 239.894C157.494 239.894 155.917 241.646 155.917 244.526C155.917 247.398 157.494 249.158 160.042 249.158ZM160.042 247.871C158.349 247.871 157.395 246.643 157.395 244.526C157.395 242.401 158.349 241.181 160.042 241.181C161.736 241.181 162.69 242.401 162.69 244.526C162.69 246.643 161.736 247.871 160.042 247.871ZM166.409 249H167.837V243.704C167.837 242.135 168.758 241.181 170.186 241.181C171.614 241.181 172.294 241.944 172.294 243.555V249H173.722V243.206C173.722 241.081 172.602 239.894 170.593 239.894C169.223 239.894 168.352 240.475 167.903 241.463H167.771V240.052H166.409V249Z" fill="black"/>
<g opacity="0.48">
<path d="M127.706 269.5L131.602 258.931H130.218L127.112 267.793H126.995L123.89 258.931H122.505L126.402 269.5H127.706ZM133.713 260.081C134.197 260.081 134.592 259.686 134.592 259.202C134.592 258.719 134.197 258.323 133.713 258.323C133.23 258.323 132.834 258.719 132.834 259.202C132.834 259.686 133.23 260.081 133.713 260.081ZM133.083 269.5H134.343V261.604H133.083V269.5ZM136.322 263.765C136.322 264.908 136.996 265.545 138.476 265.904L139.831 266.233C140.673 266.438 141.083 266.805 141.083 267.347C141.083 268.072 140.321 268.577 139.259 268.577C138.249 268.577 137.619 268.152 137.406 267.486H136.11C136.249 268.797 137.458 269.639 139.215 269.639C141.01 269.639 142.379 268.665 142.379 267.251C142.379 266.116 141.662 265.472 140.175 265.113L138.959 264.82C138.029 264.593 137.589 264.256 137.589 263.714C137.589 263.011 138.322 262.535 139.259 262.535C140.211 262.535 140.827 262.952 140.995 263.582H142.24C142.072 262.286 140.922 261.465 139.267 261.465C137.589 261.465 136.322 262.454 136.322 263.765ZM146.314 269.639C147.369 269.639 148.233 269.178 148.746 268.335H148.863V269.5H150.064V264.095C150.064 262.454 148.988 261.465 147.061 261.465C145.377 261.465 144.132 262.3 143.963 263.567H145.238C145.413 262.945 146.072 262.586 147.017 262.586C148.197 262.586 148.804 263.121 148.804 264.095V264.812L146.527 264.952C144.688 265.062 143.648 265.875 143.648 267.288C143.648 268.731 144.783 269.639 146.314 269.639ZM146.549 268.533C145.633 268.533 144.952 268.064 144.952 267.259C144.952 266.468 145.479 266.05 146.68 265.97L148.804 265.831V266.556C148.804 267.684 147.845 268.533 146.549 268.533ZM158.403 267.186C159.406 267.186 160.182 266.409 160.182 265.406C160.182 264.402 159.406 263.626 158.403 263.626C157.399 263.626 156.623 264.402 156.623 265.406C156.623 266.409 157.399 267.186 158.403 267.186ZM168.997 264.629H170.308C171.795 264.629 172.71 265.391 172.71 266.614C172.71 267.801 171.721 268.599 170.33 268.599C168.967 268.599 168.015 267.889 167.898 266.775H166.624C166.719 268.57 168.198 269.749 170.344 269.749C172.446 269.749 174.065 268.423 174.065 266.651C174.065 265.179 173.157 264.249 171.787 264.029V263.912C172.871 263.597 173.662 262.754 173.67 261.48C173.677 260 172.476 258.682 170.388 258.682C168.25 258.682 166.939 259.949 166.807 261.67H168.089C168.198 260.484 169.026 259.832 170.3 259.832C171.575 259.832 172.329 260.638 172.329 261.626C172.329 262.725 171.465 263.501 170.249 263.501H168.997V264.629ZM178.161 264.629H179.472C180.959 264.629 181.874 265.391 181.874 266.614C181.874 267.801 180.886 268.599 179.494 268.599C178.132 268.599 177.18 267.889 177.062 266.775H175.788C175.883 268.57 177.363 269.749 179.509 269.749C181.611 269.749 183.229 268.423 183.229 266.651C183.229 265.179 182.321 264.249 180.952 264.029V263.912C182.036 263.597 182.827 262.754 182.834 261.48C182.841 260 181.64 258.682 179.553 258.682C177.414 258.682 176.103 259.949 175.971 261.67H177.253C177.363 260.484 178.19 259.832 179.465 259.832C180.739 259.832 181.494 260.638 181.494 261.626C181.494 262.725 180.629 263.501 179.413 263.501H178.161V264.629ZM188.841 269.742C191.009 269.742 192.548 268.226 192.548 266.102C192.548 264.051 191.09 262.564 189.076 262.564C187.816 262.564 186.783 263.165 186.263 264.19H186.146C186.19 261.319 187.215 259.854 188.973 259.854C190.043 259.854 190.819 260.403 191.039 261.385H192.394C192.123 259.744 190.856 258.682 188.929 258.682C186.432 258.682 184.864 260.762 184.864 264.395C184.864 267.955 186.542 269.742 188.841 269.742ZM188.827 268.584C187.472 268.584 186.439 267.515 186.439 266.102C186.439 264.703 187.443 263.707 188.841 263.707C190.24 263.707 191.215 264.703 191.215 266.146C191.215 267.53 190.182 268.584 188.827 268.584ZM198.167 269.742C200.335 269.742 201.873 268.226 201.873 266.102C201.873 264.051 200.415 262.564 198.401 262.564C197.142 262.564 196.109 263.165 195.589 264.19H195.472C195.516 261.319 196.541 259.854 198.299 259.854C199.368 259.854 200.144 260.403 200.364 261.385H201.719C201.448 259.744 200.181 258.682 198.255 258.682C195.757 258.682 194.19 260.762 194.19 264.395C194.19 267.955 195.867 269.742 198.167 269.742ZM198.152 268.584C196.797 268.584 195.765 267.515 195.765 266.102C195.765 264.703 196.768 263.707 198.167 263.707C199.566 263.707 200.54 264.703 200.54 266.146C200.54 267.53 199.507 268.584 198.152 268.584Z" fill="black"/>
</g>
<g clip-path="url(#clip4)" filter="url(#filter3_d)">
<rect x="62" y="230.5" width="48" height="48" rx="14.4" fill="white"/>
<g clip-path="url(#clip5)">
<path fill-rule="evenodd" clip-rule="evenodd" d="M90.3316 238.574L72.5681 239.882C72.2936 239.883 72.0223 239.942 71.7721 240.055C71.5218 240.168 71.2983 240.332 71.1161 240.538C70.9339 240.743 70.7972 240.985 70.715 241.247C70.6327 241.509 70.6068 241.785 70.6388 242.058V261.468C70.6803 262.436 71.0534 263.36 71.6956 264.085L75.8738 269.492C76.562 270.365 77.1826 270.555 78.4913 270.494L99.1181 269.265C100.863 269.142 101.361 268.331 101.361 266.961V245.105C101.361 244.399 101.078 244.196 100.255 243.594L100.132 243.489L94.4422 239.508C93.072 238.5 92.5128 238.383 90.3316 238.574ZM78.9583 244.749C77.2747 244.859 76.8938 244.884 75.9353 244.134L73.5021 242.187C73.2563 241.941 73.3792 241.627 74.0059 241.572L91.0812 240.343C91.5693 240.28 92.0653 240.319 92.5372 240.459C93.0092 240.599 93.4467 240.835 93.8216 241.154L96.7463 243.268C96.8754 243.336 97.1826 243.704 96.8078 243.704L79.1795 244.73L78.9583 244.749ZM76.9921 266.764V248.214C76.9921 247.409 77.244 247.035 77.9936 246.985L98.2701 245.806C98.9583 245.738 99.2655 246.174 99.2655 246.985V265.419C99.2655 266.23 99.1426 266.912 98.0367 266.973L78.6265 268.067C77.4959 268.128 76.9921 267.753 76.9921 266.764ZM96.1257 249.21C96.2486 249.775 96.1257 250.334 95.5666 250.396L94.6327 250.58V264.27C93.9701 264.667 93.2224 264.901 92.4514 264.952C91.4499 264.952 91.2225 264.644 90.4545 263.723L84.3469 254.137V263.397L86.2824 263.833C86.2824 263.833 86.2824 264.952 84.7218 264.952L80.4207 265.204C80.3544 265.013 80.3625 264.805 80.4434 264.62C80.5243 264.436 80.672 264.288 80.8569 264.208L81.9814 263.895V251.637L80.4207 251.514C80.3819 251.349 80.3797 251.177 80.4141 251.011C80.4485 250.844 80.5188 250.688 80.62 250.551C80.7212 250.415 80.8509 250.302 81 250.221C81.1492 250.14 81.3142 250.093 81.4837 250.082L86.092 249.775L92.4514 259.477V250.875L90.8293 250.69C90.8048 250.543 90.8119 250.392 90.85 250.248C90.8882 250.103 90.9565 249.968 91.0506 249.852C91.1447 249.736 91.2623 249.641 91.3957 249.574C91.5292 249.507 91.6754 249.468 91.8247 249.462L96.1257 249.21Z" fill="black"/>
</g>
</g>
<rect x="122" y="256" width="138" height="16" rx="2" fill="#F7F7F7"/>
<rect x="382" y="244.5" width="40" height="24" rx="12" fill="#FFCC00" fill-opacity="0.1"/>
<path d="M391.462 252.34V261.5H394.896C397.639 261.5 399.206 259.818 399.206 256.879C399.206 254.003 397.62 252.34 394.896 252.34H391.462ZM393.1 253.718H394.681C396.477 253.718 397.537 254.886 397.537 256.904C397.537 258.967 396.502 260.123 394.681 260.123H393.1V253.718ZM405.081 258.529V257.088H400.91V258.529H405.081ZM407.4 261.5H409.114L413.03 253.705V252.34H406.657V253.68H411.38V253.781L407.4 261.5Z" fill="#FFCC00"/>
<path d="M439.932 263.704H440.928V262.268C442.887 262.118 444.514 261.031 444.514 259.03C444.514 257.287 443.318 256.407 441.185 255.893L440.928 255.834V252.058C442.048 252.199 442.845 252.854 442.953 253.975H444.397C444.339 252.141 442.845 250.929 440.928 250.754V249.318H439.932V250.763C437.964 250.937 436.562 252.116 436.562 253.9C436.562 255.536 437.674 256.457 439.741 256.955L439.932 257.005V260.964C438.496 260.807 437.856 260.018 437.707 258.98H436.263C436.321 260.915 437.956 262.085 439.932 262.259V263.704ZM438.006 253.801C438.006 252.996 438.67 252.232 439.932 252.066V255.594C438.504 255.245 438.006 254.614 438.006 253.801ZM440.978 257.254C442.621 257.652 443.069 258.233 443.069 259.146C443.069 260.101 442.472 260.856 440.928 260.973V257.246L440.978 257.254ZM451.354 262.782C453.894 262.782 455.67 261.346 455.67 259.296C455.67 257.735 454.682 256.523 453.18 256.241V256.108C454.417 255.768 455.18 254.747 455.18 253.436C455.18 251.568 453.595 250.24 451.354 250.24C449.112 250.24 447.527 251.568 447.527 253.436C447.527 254.739 448.307 255.776 449.527 256.108V256.241C448.025 256.523 447.037 257.735 447.037 259.296C447.037 261.346 448.813 262.782 451.354 262.782ZM451.354 255.61C449.942 255.61 448.996 254.797 448.996 253.577C448.996 252.34 449.934 251.518 451.354 251.518C452.773 251.518 453.711 252.34 453.711 253.577C453.711 254.797 452.765 255.61 451.354 255.61ZM451.354 261.504C449.693 261.504 448.548 260.558 448.548 259.188C448.548 257.818 449.693 256.872 451.354 256.872C453.014 256.872 454.159 257.818 454.159 259.188C454.159 260.558 453.014 261.504 451.354 261.504ZM458.725 262.583C459.322 262.583 459.804 262.093 459.804 261.504C459.804 260.906 459.322 260.425 458.725 260.425C458.135 260.425 457.646 260.906 457.646 261.504C457.646 262.093 458.135 262.583 458.725 262.583ZM465.946 262.782C468.636 262.782 470.18 260.508 470.18 256.532C470.18 252.564 468.611 250.24 465.946 250.24C463.265 250.24 461.696 252.556 461.696 256.507C461.696 260.491 463.249 262.782 465.946 262.782ZM465.946 261.479C464.178 261.479 463.199 259.711 463.199 256.507C463.199 253.344 464.195 251.551 465.946 251.551C467.698 251.551 468.677 253.328 468.677 256.507C468.677 259.719 467.714 261.479 465.946 261.479ZM476.654 262.782C479.344 262.782 480.888 260.508 480.888 256.532C480.888 252.564 479.319 250.24 476.654 250.24C473.973 250.24 472.404 252.556 472.404 256.507C472.404 260.491 473.957 262.782 476.654 262.782ZM476.654 261.479C474.886 261.479 473.907 259.711 473.907 256.507C473.907 253.344 474.903 251.551 476.654 251.551C478.406 251.551 479.385 253.328 479.385 256.507C479.385 259.719 478.422 261.479 476.654 261.479Z" fill="black"/>
</g>
<g clip-path="url(#clip6)">
<path d="M67.79 316.13H63.9551V313.466H67.5913V312.606H63.9551V310.12H67.79V309.25H62.9883V317H67.79V316.13ZM70.4971 317V310.99H70.583L74.7886 317H75.7285V309.25H74.7725V315.281H74.6865L70.481 309.25H69.541V317H70.4971ZM77.7051 309.25V317H80.3638C82.668 317 84.0215 315.566 84.0215 313.122C84.0215 310.684 82.6626 309.25 80.3638 309.25H77.7051ZM78.6719 310.12H80.2993C82.0181 310.12 83.0332 311.237 83.0332 313.133C83.0332 315.023 82.0288 316.13 80.2993 316.13H78.6719V310.12ZM85.3267 314.975C85.4287 316.312 86.562 317.183 88.2056 317.183C89.978 317.183 91.1006 316.275 91.1006 314.852C91.1006 313.713 90.4561 313.09 88.8501 312.687L88.0391 312.472C86.9702 312.198 86.5459 311.849 86.5459 311.242C86.5459 310.458 87.228 309.942 88.2593 309.942C89.2261 309.942 89.8813 310.415 90.0156 311.21H90.9878C90.9072 309.958 89.79 309.067 88.2915 309.067C86.6533 309.067 85.5522 309.958 85.5522 311.274C85.5522 312.375 86.1592 313.009 87.561 313.364L88.5547 313.622C89.6235 313.89 90.1069 314.309 90.1069 314.97C90.1069 315.738 89.3389 316.302 88.2969 316.302C87.1958 316.302 86.4224 315.786 86.3042 314.975H85.3267ZM99.0713 309.067C96.8799 309.067 95.5156 310.63 95.5156 313.122C95.5156 315.604 96.8477 317.183 99.0713 317.183C101.284 317.183 102.627 315.598 102.627 313.122C102.627 310.635 101.273 309.067 99.0713 309.067ZM99.0713 309.958C100.656 309.958 101.633 311.183 101.633 313.122C101.633 315.045 100.661 316.291 99.0713 316.291C97.46 316.291 96.5093 315.045 96.5093 313.122C96.5093 311.183 97.4922 309.958 99.0713 309.958ZM105.259 317V310.99H105.345L109.55 317H110.49V309.25H109.534V315.281H109.448L105.243 309.25H104.303V317H105.259ZM118.826 309.067C116.635 309.067 115.271 310.63 115.271 313.122C115.271 315.604 116.603 317.183 118.826 317.183C121.039 317.183 122.382 315.598 122.382 313.122C122.382 310.635 121.028 309.067 118.826 309.067ZM118.826 309.958C120.411 309.958 121.388 311.183 121.388 313.122C121.388 315.045 120.416 316.291 118.826 316.291C117.215 316.291 116.264 315.045 116.264 313.122C116.264 311.183 117.247 309.958 118.826 309.958ZM127.178 317.183C128.827 317.183 130.052 316.264 130.31 314.841H129.327C129.08 315.738 128.258 316.291 127.178 316.291C125.685 316.291 124.75 315.072 124.75 313.127C124.75 311.183 125.685 309.958 127.173 309.958C128.242 309.958 129.069 310.587 129.327 311.586H130.31C130.079 310.093 128.806 309.067 127.173 309.067C125.067 309.067 123.757 310.625 123.757 313.127C123.757 315.625 125.073 317.183 127.178 317.183ZM134.644 317V310.12H137.142V309.25H131.18V310.12H133.677V317H134.644ZM141.567 309.067C139.376 309.067 138.012 310.63 138.012 313.122C138.012 315.604 139.344 317.183 141.567 317.183C143.78 317.183 145.123 315.598 145.123 313.122C145.123 310.635 143.77 309.067 141.567 309.067ZM141.567 309.958C143.152 309.958 144.129 311.183 144.129 313.122C144.129 315.045 143.157 316.291 141.567 316.291C139.956 316.291 139.005 315.045 139.005 313.122C139.005 311.183 139.988 309.958 141.567 309.958ZM149.823 317C151.472 317 152.449 316.189 152.449 314.825C152.449 313.799 151.778 313.074 150.72 312.939V312.854C151.466 312.719 152.057 311.989 152.057 311.183C152.057 309.996 151.187 309.25 149.764 309.25H146.799V317H149.823ZM147.766 310.104H149.56C150.521 310.104 151.08 310.56 151.08 311.35C151.08 312.171 150.483 312.59 149.312 312.59H147.766V310.104ZM147.766 316.146V313.423H149.586C150.822 313.423 151.456 313.879 151.456 314.776C151.456 315.673 150.843 316.146 149.678 316.146H147.766ZM158.83 316.13H154.995V313.466H158.631V312.606H154.995V310.12H158.83V309.25H154.028V317H158.83V316.13ZM161.548 313.933H163.455L165.114 317H166.248L164.454 313.783C165.426 313.477 166.011 312.639 166.011 311.559C166.011 310.163 165.034 309.25 163.541 309.25H160.581V317H161.548V313.933ZM161.548 310.109H163.412C164.411 310.109 165.012 310.662 165.012 311.591C165.012 312.542 164.448 313.074 163.455 313.074H161.548V310.109ZM172.602 317H173.568V309.25H172.607L170.544 310.732V311.752L172.516 310.324H172.602V317ZM178.461 317.183C180.046 317.183 181.125 316.087 181.125 314.492C181.125 312.956 180.051 311.935 178.751 311.935C177.978 311.935 177.403 312.171 177.027 312.639H176.941L177.183 310.114H180.728V309.25H176.426L175.98 313.681H176.888C177.194 313.106 177.774 312.768 178.51 312.768C179.487 312.768 180.159 313.471 180.159 314.519C180.159 315.604 179.487 316.334 178.472 316.334C177.559 316.334 176.893 315.781 176.807 314.954H175.856C175.942 316.28 176.995 317.183 178.461 317.183Z" fill="#666666"/>
<path d="M133.09 356V344.022H131.596V349.202H125.021V344.022H123.527V356H125.021V350.546H131.596V356H133.09ZM143.2 347.052H141.772V352.348C141.772 353.917 140.909 354.854 139.332 354.854C137.904 354.854 137.307 354.107 137.307 352.497V347.052H135.879V352.846C135.879 354.962 136.925 356.158 138.934 356.158C140.303 356.158 141.258 355.593 141.706 354.597H141.839V356H143.2V347.052ZM145.973 356H147.4V343.499H145.973V356ZM157.411 347.052H155.983V352.348C155.983 353.917 155.12 354.854 153.543 354.854C152.115 354.854 151.518 354.107 151.518 352.497V347.052H150.09V352.846C150.09 354.962 151.136 356.158 153.145 356.158C154.514 356.158 155.469 355.593 155.917 354.597H156.05V356H157.411V347.052Z" fill="black"/>
<g opacity="0.48">
<path d="M127.706 376.5L131.602 365.931H130.218L127.112 374.793H126.995L123.89 365.931H122.505L126.402 376.5H127.706ZM133.713 367.081C134.197 367.081 134.592 366.686 134.592 366.202C134.592 365.719 134.197 365.323 133.713 365.323C133.23 365.323 132.834 365.719 132.834 366.202C132.834 366.686 133.23 367.081 133.713 367.081ZM133.083 376.5H134.343V368.604H133.083V376.5ZM136.322 370.765C136.322 371.908 136.996 372.545 138.476 372.904L139.831 373.233C140.673 373.438 141.083 373.805 141.083 374.347C141.083 375.072 140.321 375.577 139.259 375.577C138.249 375.577 137.619 375.152 137.406 374.486H136.11C136.249 375.797 137.458 376.639 139.215 376.639C141.01 376.639 142.379 375.665 142.379 374.251C142.379 373.116 141.662 372.472 140.175 372.113L138.959 371.82C138.029 371.593 137.589 371.256 137.589 370.714C137.589 370.011 138.322 369.535 139.259 369.535C140.211 369.535 140.827 369.952 140.995 370.582H142.24C142.072 369.286 140.922 368.465 139.267 368.465C137.589 368.465 136.322 369.454 136.322 370.765ZM146.314 376.639C147.369 376.639 148.233 376.178 148.746 375.335H148.863V376.5H150.064V371.095C150.064 369.454 148.988 368.465 147.061 368.465C145.377 368.465 144.132 369.3 143.963 370.567H145.238C145.413 369.945 146.072 369.586 147.017 369.586C148.197 369.586 148.804 370.121 148.804 371.095V371.812L146.527 371.952C144.688 372.062 143.648 372.875 143.648 374.288C143.648 375.731 144.783 376.639 146.314 376.639ZM146.549 375.533C145.633 375.533 144.952 375.064 144.952 374.259C144.952 373.468 145.479 373.05 146.68 372.97L148.804 372.831V373.556C148.804 374.684 147.845 375.533 146.549 375.533ZM158.403 374.186C159.406 374.186 160.182 373.409 160.182 372.406C160.182 371.402 159.406 370.626 158.403 370.626C157.399 370.626 156.623 371.402 156.623 372.406C156.623 373.409 157.399 374.186 158.403 374.186ZM168.997 371.629H170.308C171.795 371.629 172.71 372.391 172.71 373.614C172.71 374.801 171.721 375.599 170.33 375.599C168.967 375.599 168.015 374.889 167.898 373.775H166.624C166.719 375.57 168.198 376.749 170.344 376.749C172.446 376.749 174.065 375.423 174.065 373.651C174.065 372.179 173.157 371.249 171.787 371.029V370.912C172.871 370.597 173.662 369.754 173.67 368.48C173.677 367 172.476 365.682 170.388 365.682C168.25 365.682 166.939 366.949 166.807 368.67H168.089C168.198 367.484 169.026 366.832 170.3 366.832C171.575 366.832 172.329 367.638 172.329 368.626C172.329 369.725 171.465 370.501 170.249 370.501H168.997V371.629ZM178.161 371.629H179.472C180.959 371.629 181.874 372.391 181.874 373.614C181.874 374.801 180.886 375.599 179.494 375.599C178.132 375.599 177.18 374.889 177.062 373.775H175.788C175.883 375.57 177.363 376.749 179.509 376.749C181.611 376.749 183.229 375.423 183.229 373.651C183.229 372.179 182.321 371.249 180.952 371.029V370.912C182.036 370.597 182.827 369.754 182.834 368.48C182.841 367 181.64 365.682 179.553 365.682C177.414 365.682 176.103 366.949 175.971 368.67H177.253C177.363 367.484 178.19 366.832 179.465 366.832C180.739 366.832 181.494 367.638 181.494 368.626C181.494 369.725 180.629 370.501 179.413 370.501H178.161V371.629ZM188.841 376.742C191.009 376.742 192.548 375.226 192.548 373.102C192.548 371.051 191.09 369.564 189.076 369.564C187.816 369.564 186.783 370.165 186.263 371.19H186.146C186.19 368.319 187.215 366.854 188.973 366.854C190.043 366.854 190.819 367.403 191.039 368.385H192.394C192.123 366.744 190.856 365.682 188.929 365.682C186.432 365.682 184.864 367.762 184.864 371.395C184.864 374.955 186.542 376.742 188.841 376.742ZM188.827 375.584C187.472 375.584 186.439 374.515 186.439 373.102C186.439 371.703 187.443 370.707 188.841 370.707C190.24 370.707 191.215 371.703 191.215 373.146C191.215 374.53 190.182 375.584 188.827 375.584ZM198.167 376.742C200.335 376.742 201.873 375.226 201.873 373.102C201.873 371.051 200.415 369.564 198.401 369.564C197.142 369.564 196.109 370.165 195.589 371.19H195.472C195.516 368.319 196.541 366.854 198.299 366.854C199.368 366.854 200.144 367.403 200.364 368.385H201.719C201.448 366.744 200.181 365.682 198.255 365.682C195.757 365.682 194.19 367.762 194.19 371.395C194.19 374.955 195.867 376.742 198.167 376.742ZM198.152 375.584C196.797 375.584 195.765 374.515 195.765 373.102C195.765 371.703 196.768 370.707 198.167 370.707C199.566 370.707 200.54 371.703 200.54 373.146C200.54 374.53 199.507 375.584 198.152 375.584Z" fill="black"/>
</g>
<g clip-path="url(#clip7)" filter="url(#filter4_d)">
<rect x="62" y="337.5" width="48" height="48" rx="14.4" fill="black"/>
<path d="M89.6091 366.777H92.1584V356.224H89.6091V366.777ZM85.1329 363.768C85.1329 364.138 84.8217 364.45 84.4511 364.45H82.969C82.5984 364.45 82.2872 364.138 82.2872 363.768V359.514H79.7378V363.975C79.7378 365.798 80.9088 366.762 82.6281 366.762H85.1181C86.704 366.762 87.6674 365.62 87.6674 363.975V359.514H85.1181C85.1329 359.514 85.1329 363.634 85.1329 363.768ZM99.4655 359.514V363.768C99.4655 364.138 99.1542 364.45 98.7837 364.45H97.3015C96.931 364.45 96.6197 364.138 96.6197 363.768V359.514H94.0704V363.975C94.0704 365.798 95.2413 366.762 96.9606 366.762H99.4507C101.037 366.762 102 365.62 102 363.975V359.514H99.4655ZM75.0394 359.514H73.409C72.8309 359.514 72.5493 359.662 72.5493 359.662V356.224H70V366.762H72.5345V362.523C72.5345 362.152 72.8458 361.841 73.2163 361.841H74.6985C75.069 361.841 75.3803 362.152 75.3803 362.523V366.777H77.9296V362.182C77.9296 360.255 76.6401 359.514 75.0394 359.514Z" fill="#1CE783"/>
</g>
<rect x="122" y="363" width="138" height="16" rx="2" fill="#F7F7F7"/>
<rect x="374" y="351.5" width="49" height="24" rx="12" fill="#1ED760" fill-opacity="0.1"/>
<path d="M383.508 359.34V368.5H386.942C389.684 368.5 391.252 366.818 391.252 363.879C391.252 361.003 389.665 359.34 386.942 359.34H383.508ZM385.146 360.718H386.726C388.523 360.718 389.583 361.886 389.583 363.904C389.583 365.967 388.548 367.123 386.726 367.123H385.146V360.718ZM397.126 365.529V364.088H392.956V365.529H397.126ZM398.957 362.051H400.493C400.493 361.086 401.128 360.426 402.125 360.426C403.083 360.426 403.654 361.067 403.654 361.898C403.654 362.597 403.375 363.035 402.22 364.203L399.046 367.396V368.5H405.406V367.142H401.268V367.034L403.235 365.098C404.81 363.555 405.273 362.812 405.273 361.746C405.273 360.223 404.035 359.112 402.213 359.112C400.303 359.112 398.957 360.318 398.957 362.051ZM409.262 364.412H410.411C411.541 364.412 412.226 364.977 412.226 365.897C412.226 366.786 411.483 367.383 410.43 367.383C409.37 367.383 408.652 366.837 408.583 365.986H407.015C407.091 367.643 408.456 368.729 410.449 368.729C412.429 368.729 413.902 367.586 413.902 366.012C413.902 364.761 413.121 363.955 411.877 363.765V363.657C412.848 363.396 413.54 362.667 413.546 361.562C413.553 360.248 412.455 359.112 410.506 359.112C408.519 359.112 407.275 360.235 407.192 361.841H408.729C408.798 360.927 409.42 360.419 410.417 360.419C411.388 360.419 411.966 361.016 411.966 361.771C411.966 362.603 411.318 363.187 410.379 363.187H409.262V364.412Z" fill="#4CD964"/>
<path d="M440.264 370.704H441.26V369.268C443.219 369.118 444.846 368.031 444.846 366.03C444.846 364.287 443.65 363.407 441.517 362.893L441.26 362.834V359.058C442.38 359.199 443.177 359.854 443.285 360.975H444.729C444.671 359.141 443.177 357.929 441.26 357.754V356.318H440.264V357.763C438.296 357.937 436.894 359.116 436.894 360.9C436.894 362.536 438.006 363.457 440.073 363.955L440.264 364.005V367.964C438.828 367.807 438.188 367.018 438.039 365.98H436.595C436.653 367.915 438.288 369.085 440.264 369.259V370.704ZM438.338 360.801C438.338 359.996 439.002 359.232 440.264 359.066V362.594C438.836 362.245 438.338 361.614 438.338 360.801ZM441.31 364.254C442.953 364.652 443.401 365.233 443.401 366.146C443.401 367.101 442.804 367.856 441.26 367.973V364.246L441.31 364.254ZM451.578 369.782C454.026 369.782 455.695 368.089 455.695 365.624C455.695 363.25 454.035 361.672 452.026 361.672C450.831 361.672 449.942 362.038 449.361 362.76H449.229L449.602 358.858H455.081V357.522H448.432L447.743 364.37H449.146C449.619 363.482 450.515 362.959 451.652 362.959C453.163 362.959 454.201 364.046 454.201 365.665C454.201 367.342 453.163 368.471 451.594 368.471C450.183 368.471 449.154 367.616 449.021 366.337H447.552C447.685 368.388 449.312 369.782 451.578 369.782ZM458.725 369.583C459.322 369.583 459.804 369.093 459.804 368.504C459.804 367.906 459.322 367.425 458.725 367.425C458.135 367.425 457.646 367.906 457.646 368.504C457.646 369.093 458.135 369.583 458.725 369.583ZM465.946 369.782C468.636 369.782 470.18 367.508 470.18 363.532C470.18 359.564 468.611 357.24 465.946 357.24C463.265 357.24 461.696 359.556 461.696 363.507C461.696 367.491 463.249 369.782 465.946 369.782ZM465.946 368.479C464.178 368.479 463.199 366.711 463.199 363.507C463.199 360.344 464.195 358.551 465.946 358.551C467.698 358.551 468.677 360.328 468.677 363.507C468.677 366.719 467.714 368.479 465.946 368.479ZM476.654 369.782C479.344 369.782 480.888 367.508 480.888 363.532C480.888 359.564 479.319 357.24 476.654 357.24C473.973 357.24 472.404 359.556 472.404 363.507C472.404 367.491 473.957 369.782 476.654 369.782ZM476.654 368.479C474.886 368.479 473.907 366.711 473.907 363.507C473.907 360.344 474.903 358.551 476.654 358.551C478.406 358.551 479.385 360.328 479.385 363.507C479.385 366.719 478.422 368.479 476.654 368.479Z" fill="black"/>
</g>
</g>
<defs>
<filter id="filter0_d" x="0" y="0" width="552" height="169" filterUnits="userSpaceOnUse" color-interpolation-filters="sRGB">
<feFlood flood-opacity="0" result="BackgroundImageFix"/>
<feColorMatrix in="SourceAlpha" type="matrix" values="0 0 0 0 0 0 0 0 0 0 0 0 0 0 0 0 0 0 127 0"/>
<feOffset dx="2" dy="4"/>
<feGaussianBlur stdDeviation="10"/>
<feColorMatrix type="matrix" values="0 0 0 0 0.184314 0 0 0 0 0.0156863 0 0 0 0 0.34902 0 0 0 0.15 0"/>
<feBlend mode="normal" in2="BackgroundImageFix" result="effect1_dropShadow"/>
<feBlend mode="normal" in="SourceGraphic" in2="effect1_dropShadow" result="shape"/>
</filter>
<filter id="filter1_d" x="52" y="64.5" width="68" height="68" filterUnits="userSpaceOnUse" color-interpolation-filters="sRGB">
<feFlood flood-opacity="0" result="BackgroundImageFix"/>
<feColorMatrix in="SourceAlpha" type="matrix" values="0 0 0 0 0 0 0 0 0 0 0 0 0 0 0 0 0 0 127 0"/>
<feOffset dy="2"/>
<feGaussianBlur stdDeviation="5"/>
<feColorMatrix type="matrix" values="0 0 0 0 0 0 0 0 0 0 0 0 0 0 0 0 0 0 0.1 0"/>
<feBlend mode="normal" in2="BackgroundImageFix" result="effect1_dropShadow"/>
<feBlend mode="normal" in="SourceGraphic" in2="effect1_dropShadow" result="shape"/>
</filter>
<filter id="filter2_d" x="0" y="158" width="552" height="276" filterUnits="userSpaceOnUse" color-interpolation-filters="sRGB">
<feFlood flood-opacity="0" result="BackgroundImageFix"/>
<feColorMatrix in="SourceAlpha" type="matrix" values="0 0 0 0 0 0 0 0 0 0 0 0 0 0 0 0 0 0 127 0"/>
<feOffset dx="2" dy="4"/>
<feGaussianBlur stdDeviation="10"/>
<feColorMatrix type="matrix" values="0 0 0 0 0.184314 0 0 0 0 0.0156863 0 0 0 0 0.34902 0 0 0 0.15 0"/>
<feBlend mode="normal" in2="BackgroundImageFix" result="effect1_dropShadow"/>
<feBlend mode="normal" in="SourceGraphic" in2="effect1_dropShadow" result="shape"/>
</filter>
<filter id="filter3_d" x="52" y="222.5" width="68" height="68" filterUnits="userSpaceOnUse" color-interpolation-filters="sRGB">
<feFlood flood-opacity="0" result="BackgroundImageFix"/>
<feColorMatrix in="SourceAlpha" type="matrix" values="0 0 0 0 0 0 0 0 0 0 0 0 0 0 0 0 0 0 127 0"/>
<feOffset dy="2"/>
<feGaussianBlur stdDeviation="5"/>
<feColorMatrix type="matrix" values="0 0 0 0 0 0 0 0 0 0 0 0 0 0 0 0 0 0 0.1 0"/>
<feBlend mode="normal" in2="BackgroundImageFix" result="effect1_dropShadow"/>
<feBlend mode="normal" in="SourceGraphic" in2="effect1_dropShadow" result="shape"/>
</filter>
<filter id="filter4_d" x="52" y="329.5" width="68" height="68" filterUnits="userSpaceOnUse" color-interpolation-filters="sRGB">
<feFlood flood-opacity="0" result="BackgroundImageFix"/>
<feColorMatrix in="SourceAlpha" type="matrix" values="0 0 0 0 0 0 0 0 0 0 0 0 0 0 0 0 0 0 127 0"/>
<feOffset dy="2"/>
<feGaussianBlur stdDeviation="5"/>
<feColorMatrix type="matrix" values="0 0 0 0 0 0 0 0 0 0 0 0 0 0 0 0 0 0 0.1 0"/>
<feBlend mode="normal" in2="BackgroundImageFix" result="effect1_dropShadow"/>
<feBlend mode="normal" in="SourceGraphic" in2="effect1_dropShadow" result="shape"/>
</filter>
<radialGradient id="paint0_radial" cx="0" cy="0" r="1" gradientUnits="userSpaceOnUse" gradientTransform="translate(101.031 110.451) rotate(-18.4349) scale(3.99977 145.725)">
<stop/>
<stop offset="1" stop-opacity="0"/>
</radialGradient>
<radialGradient id="paint1_radial" cx="0" cy="0" r="1" gradientUnits="userSpaceOnUse" gradientTransform="translate(101.031 110.451) rotate(-18.4349) scale(3.99977 145.725)">
<stop/>
<stop offset="1" stop-opacity="0"/>
</radialGradient>
<clipPath id="clip0">
<rect width="448" height="97" fill="white" transform="translate(50 32)"/>
</clipPath>
<clipPath id="clip1">
<rect width="48" height="48" fill="white" transform="translate(62 72.5)"/>
</clipPath>
<clipPath id="clip2">
<rect width="17.6978" height="32" fill="white" transform="translate(77.1511 80.5)"/>
</clipPath>
<clipPath id="clip3">
<rect width="448" height="97" fill="white" transform="translate(50 190)"/>
</clipPath>
<clipPath id="clip4">
<rect width="48" height="48" fill="white" transform="translate(62 230.5)"/>
</clipPath>
<clipPath id="clip5">
<rect width="30.722" height="32" fill="white" transform="translate(70.6389 238.5)"/>
</clipPath>
<clipPath id="clip6">
<rect width="448" height="97" fill="white" transform="translate(50 297)"/>
</clipPath>
<clipPath id="clip7">
<rect width="48" height="48" fill="white" transform="translate(62 337.5)"/>
</clipPath>
</defs>
</svg>
