<svg width="513" height="196" viewBox="0 0 513 196" fill="none" xmlns="http://www.w3.org/2000/svg">
<g clip-path="url(#clip0)">
<rect opacity="0.3" x="146.903" y="30.1986" width="365.978" height="50" rx="25" fill="#E9E9EA"/>
<g filter="url(#filter0_d)">
<rect x="146.903" y="20.3972" width="69.6028" height="69.6028" rx="34.8014" fill="#7610EB"/>
<path d="M170.361 67.2551H173.318V42.7344H170.328L163.802 47.4244V50.5001L170.294 45.98H170.361V67.2551Z" fill="white"/>
<path d="M190.872 67.6629C195.987 67.6629 199.606 64.2134 199.606 59.2854C199.606 54.5784 196.208 51.1628 191.501 51.1628C189.122 51.1628 187.082 52.0465 185.927 53.6948H185.859L186.692 45.4532H198.213V42.7344H184.177L182.919 56.7195H185.621C186.76 54.7483 188.629 53.7967 190.957 53.7967C194.219 53.7967 196.547 56.1248 196.547 59.3704C196.547 62.667 194.236 64.978 190.906 64.978C187.966 64.978 185.74 63.1768 185.468 60.5599H182.46C182.715 64.7401 186.182 67.6629 190.872 67.6629Z" fill="white"/>
</g>
<path d="M246.896 65.8089H249.455V44.5884H246.867L241.22 48.6472V51.3089L246.837 47.3972H246.896V65.8089Z" fill="black"/>
<path d="M265.029 66.1766C269.381 66.1766 272.543 63.1178 272.543 58.9266C272.543 54.8972 269.543 51.9119 265.499 51.9119C262.617 51.9119 260.44 53.4413 259.573 55.3531H259.529C259.617 49.706 261.631 46.5589 265.176 46.5589C267.352 46.5589 268.94 47.6619 269.558 49.5736H272.249C271.587 46.3236 268.808 44.2207 265.205 44.2207C260.014 44.2207 256.97 48.4119 256.97 55.5589C256.97 63.456 261.117 66.1766 265.029 66.1766ZM264.999 63.8236C262.279 63.8236 260.161 61.6619 260.161 58.9413C260.161 56.2354 262.234 54.2354 265.043 54.2354C267.852 54.2354 269.852 56.2354 269.852 59.0148C269.852 61.6913 267.705 63.8236 264.999 63.8236Z" fill="black"/>
<path d="M322.535 65.8088H325.094V44.5883H322.506L316.859 48.6471V51.3088L322.477 47.3971H322.535V65.8088Z" fill="black"/>
<path d="M335.271 65.8088H338.05L347.491 47.0441V44.5883H333.447V46.9412H344.874V47L335.271 65.8088Z" fill="black"/>
<path d="M397.536 65.8089H400.094V44.5883H397.506L391.859 48.6471V51.3089L397.477 47.3971H397.536V65.8089Z" fill="black"/>
<path d="M415.374 66.1618C419.874 66.1618 423.08 63.6324 423.08 60.0736C423.08 57.4412 421.256 55.2648 418.506 54.6177V54.5589C420.859 53.8089 422.286 52.0295 422.286 49.8236C422.286 46.5883 419.389 44.2354 415.374 44.2354C411.389 44.2354 408.447 46.603 408.447 49.8089C408.447 52.0442 409.903 53.8383 412.241 54.5589V54.6177C409.506 55.2501 407.683 57.4265 407.683 60.0736C407.683 63.6177 410.889 66.1618 415.374 66.1618ZM415.374 53.5736C412.844 53.5736 411.08 52.1177 411.08 50.0589C411.08 47.9854 412.844 46.5148 415.374 46.5148C417.903 46.5148 419.668 47.9706 419.668 50.0589C419.668 52.1177 417.889 53.5736 415.374 53.5736ZM415.374 63.853C412.462 63.853 410.374 62.1912 410.374 59.8824C410.374 57.5589 412.462 55.8971 415.374 55.8971C418.3 55.8971 420.374 57.5442 420.374 59.8824C420.374 62.1912 418.3 63.853 415.374 63.853Z" fill="black"/>
<path d="M472.786 65.8163H475.344V44.5957H472.756L467.109 48.6545V51.3163L472.727 47.4045H472.786V65.8163Z" fill="black"/>
<path d="M490.197 66.1692C495.389 66.1692 498.418 61.9927 498.418 54.8457C498.418 46.8016 494.153 44.228 490.359 44.228C486.006 44.228 482.844 47.2869 482.844 51.478C482.844 55.5074 485.844 58.4927 489.889 58.4927C492.594 58.4927 494.918 57.1251 495.815 55.0221H495.859C495.786 60.6545 493.83 63.8604 490.227 63.8604C488.021 63.8604 486.359 62.8457 485.771 60.8898H483.08C483.697 64.081 486.536 66.1692 490.197 66.1692ZM490.344 56.1692C487.565 56.1692 485.521 54.1545 485.521 51.3898C485.521 48.728 487.668 46.6104 490.389 46.6104C493.124 46.6104 495.241 48.7427 495.241 51.4633C495.241 54.1692 493.153 56.1692 490.344 56.1692Z" fill="black"/>
<path d="M22.381 65.6299H24.9399V44.4092H22.3516L16.7045 48.468V51.1298L22.3222 47.218H22.381V65.6299ZM37.44 55.7916H40.1017C43.0871 55.7916 44.9547 57.2622 44.94 59.8798C44.9253 62.1004 43.0576 63.6887 40.2635 63.6887C37.44 63.6887 35.4547 62.2622 35.2929 60.0122H32.7488C32.9399 63.5269 35.8664 65.9828 40.2635 65.9828C44.4253 65.9828 47.6312 63.4387 47.6312 59.7916C47.6312 56.7769 45.5282 54.8504 42.44 54.5857V54.5269C45.1018 53.968 46.94 52.1592 46.94 49.5268C46.94 46.4974 44.4841 44.0562 40.2341 44.0562C36.2635 44.0562 33.4693 46.3651 33.1752 49.968H35.7194C35.8811 47.6739 37.7341 46.3504 40.2341 46.3504C42.9547 46.3504 44.2782 47.7768 44.2782 49.8798C44.2782 51.9974 42.5135 53.5563 39.9841 53.5563H37.44V55.7916Z" fill="#C8C7CC"/>
<path d="M97.6169 65.6299H100.176V44.4092H97.5875L91.9404 48.468V51.1298L97.5581 47.218H97.6169V65.6299ZM118.161 65.6299H120.72V61.2181H123.72V58.8945H120.72V44.4092H116.808C111.793 51.6004 109.308 55.4681 107.499 58.821V61.2181H118.161V65.6299ZM110.117 58.8357C111.793 55.8945 114.102 52.3504 118.117 46.6151H118.161V58.8945H110.117V58.8357Z" fill="#C8C7CC"/>
<rect opacity="0.3" x="0.998535" y="115.801" width="215.507" height="50" rx="25" fill="#E9E9EA"/>
<path d="M14.447 136.323H17.0058C17.0058 133.941 18.9764 132.147 21.5941 132.147C24.0206 132.147 25.5794 133.809 25.5794 135.897C25.5794 137.662 24.9176 138.809 22.05 141.794L14.5794 149.588V151.412H28.5794V149.059H18.2117V149L23.2558 143.823C27.1529 139.823 28.2264 138.073 28.2264 135.735C28.2264 132.515 25.5205 129.838 21.5941 129.838C17.5058 129.838 14.447 132.603 14.447 136.323Z" fill="black"/>
<path d="M39.697 151.765C44.6382 151.765 47.7853 147.485 47.7853 140.779C47.7853 134.118 44.6235 129.838 39.697 129.838C34.7558 129.838 31.5794 134.147 31.5794 140.794C31.5794 147.5 34.7264 151.765 39.697 151.765ZM39.697 149.456C36.3735 149.456 34.2411 146.073 34.2411 140.779C34.2411 135.603 36.4176 132.162 39.697 132.162C42.9764 132.162 45.1235 135.573 45.1235 140.794C45.1235 146.088 43.0058 149.456 39.697 149.456Z" fill="black"/>
<path d="M92.3372 136.5H94.896C94.896 134.117 96.8666 132.323 99.4842 132.323C101.911 132.323 103.47 133.985 103.47 136.073C103.47 137.838 102.808 138.985 99.9401 141.97L92.4695 149.765V151.588H106.47V149.235H96.1019V149.176L101.146 144C105.043 140 106.117 138.25 106.117 135.912C106.117 132.691 103.411 130.015 99.4842 130.015C95.396 130.015 92.3372 132.779 92.3372 136.5Z" fill="black"/>
<path d="M117.925 151.588H120.484V130.367H117.896L112.249 134.426V137.088L117.867 133.176H117.925V151.588Z" fill="black"/>
<g filter="url(#filter1_d)">
<rect x="146.903" y="106" width="69.6028" height="69.6028" rx="34.8014" fill="#7610EB"/>
<path d="M163.02 135.831H165.977C165.977 133.078 168.254 131.005 171.279 131.005C174.083 131.005 175.884 132.925 175.884 135.338C175.884 137.377 175.119 138.703 171.806 142.152L163.173 151.159V153.266H179.35V150.547H167.37V150.479L173.199 144.497C177.702 139.875 178.943 137.853 178.943 135.151C178.943 131.43 175.816 128.337 171.279 128.337C166.555 128.337 163.02 131.532 163.02 135.831Z" fill="white"/>
<path d="M184.057 135.831H187.014C187.014 133.078 189.291 131.005 192.316 131.005C195.12 131.005 196.921 132.925 196.921 135.338C196.921 137.377 196.156 138.703 192.843 142.152L184.21 151.159V153.266H200.388V150.547H188.408V150.479L194.236 144.497C198.739 139.875 199.98 137.853 199.98 135.151C199.98 131.43 196.853 128.337 192.316 128.337C187.592 128.337 184.057 131.532 184.057 135.831Z" fill="white"/>
</g>
<path d="M391.468 136.144H394.027C394.027 133.762 395.998 131.968 398.615 131.968C401.042 131.968 402.601 133.629 402.601 135.718C402.601 137.482 401.939 138.629 399.071 141.615L391.601 149.409V151.232H405.601V148.879H395.233V148.821L400.277 143.644C404.174 139.644 405.248 137.894 405.248 135.556C405.248 132.335 402.542 129.659 398.615 129.659C394.527 129.659 391.468 132.423 391.468 136.144ZM416.601 151.585C421.027 151.585 424.16 148.6 424.16 144.335C424.16 140.262 421.219 137.306 417.145 137.306C415.086 137.306 413.321 138.071 412.321 139.497H412.263L412.983 132.365H422.954V130.012H410.807L409.718 142.115H412.057C413.042 140.409 414.66 139.585 416.674 139.585C419.498 139.585 421.513 141.6 421.513 144.409C421.513 147.262 419.513 149.262 416.63 149.262C414.086 149.262 412.16 147.703 411.924 145.438H409.321C409.542 149.056 412.542 151.585 416.601 151.585Z" fill="#C8C7CC"/>
<path d="M316.174 136.144H318.733C318.733 133.762 320.704 131.968 323.322 131.968C325.748 131.968 327.307 133.629 327.307 135.718C327.307 137.482 326.645 138.629 323.777 141.615L316.307 149.409V151.232H330.307V148.879H319.939V148.821L324.983 143.644C328.88 139.644 329.954 137.894 329.954 135.556C329.954 132.335 327.248 129.659 323.322 129.659C319.233 129.659 316.174 132.423 316.174 136.144ZM344.101 151.232H346.66V146.821H349.66V144.497H346.66V130.012H342.748C337.733 137.203 335.248 141.071 333.439 144.424V146.821H344.101V151.232ZM336.057 144.438C337.733 141.497 340.042 137.953 344.057 132.218H344.101V144.497H336.057V144.438Z" fill="#C8C7CC"/>
<path d="M240.88 136.144H243.439C243.439 133.762 245.41 131.968 248.028 131.968C250.454 131.968 252.013 133.629 252.013 135.718C252.013 137.482 251.351 138.629 248.483 141.615L241.013 149.409V151.232H255.013V148.879H244.645V148.821L249.689 143.644C253.586 139.644 254.66 137.894 254.66 135.556C254.66 132.335 251.954 129.659 248.028 129.659C243.939 129.659 240.88 132.423 240.88 136.144ZM263.322 141.394H265.984C268.969 141.394 270.837 142.865 270.822 145.482C270.807 147.703 268.939 149.291 266.145 149.291C263.322 149.291 261.336 147.865 261.175 145.615H258.631C258.822 149.129 261.748 151.585 266.145 151.585C270.307 151.585 273.513 149.041 273.513 145.394C273.513 142.379 271.41 140.453 268.322 140.188V140.129C270.984 139.571 272.822 137.762 272.822 135.129C272.822 132.1 270.366 129.659 266.116 129.659C262.145 129.659 259.351 131.968 259.057 135.571H261.601C261.763 133.276 263.616 131.953 266.116 131.953C268.837 131.953 270.16 133.379 270.16 135.482C270.16 137.6 268.395 139.159 265.866 139.159H263.322V141.394Z" fill="#C8C7CC"/>
<path d="M466.763 136.144H469.322C469.322 133.762 471.292 131.968 473.91 131.968C476.336 131.968 477.895 133.629 477.895 135.718C477.895 137.482 477.233 138.629 474.366 141.615L466.895 149.409V151.232H480.895V148.879H470.528V148.821L475.572 143.644C479.469 139.644 480.542 137.894 480.542 135.556C480.542 132.335 477.836 129.659 473.91 129.659C469.822 129.659 466.763 132.423 466.763 136.144ZM492.278 151.6C496.631 151.6 499.792 148.541 499.792 144.35C499.792 140.321 496.792 137.335 492.748 137.335C489.866 137.335 487.689 138.865 486.822 140.776H486.778C486.866 135.129 488.881 131.982 492.425 131.982C494.601 131.982 496.189 133.085 496.807 134.997H499.498C498.837 131.747 496.057 129.644 492.454 129.644C487.263 129.644 484.219 133.835 484.219 140.982C484.219 148.879 488.366 151.6 492.278 151.6ZM492.248 149.247C489.528 149.247 487.41 147.085 487.41 144.365C487.41 141.659 489.484 139.659 492.292 139.659C495.101 139.659 497.101 141.659 497.101 144.438C497.101 147.115 494.954 149.247 492.248 149.247Z" fill="#C8C7CC"/>
</g>
<defs>
<filter id="filter0_d" x="123.793" y="3.0645" width="115.823" height="115.823" filterUnits="userSpaceOnUse" color-interpolation-filters="sRGB">
<feFlood flood-opacity="0" result="BackgroundImageFix"/>
<feColorMatrix in="SourceAlpha" type="matrix" values="0 0 0 0 0 0 0 0 0 0 0 0 0 0 0 0 0 0 127 0"/>
<feOffset dy="5.77757"/>
<feGaussianBlur stdDeviation="11.5551"/>
<feColorMatrix type="matrix" values="0 0 0 0 0.261106 0 0 0 0 0.0354042 0 0 0 0 0.52 0 0 0 0.5 0"/>
<feBlend mode="normal" in2="BackgroundImageFix" result="effect1_dropShadow"/>
<feBlend mode="normal" in="SourceGraphic" in2="effect1_dropShadow" result="shape"/>
</filter>
<filter id="filter1_d" x="123.792" y="88.6673" width="115.823" height="115.823" filterUnits="userSpaceOnUse" color-interpolation-filters="sRGB">
<feFlood flood-opacity="0" result="BackgroundImageFix"/>
<feColorMatrix in="SourceAlpha" type="matrix" values="0 0 0 0 0 0 0 0 0 0 0 0 0 0 0 0 0 0 127 0"/>
<feOffset dy="5.77757"/>
<feGaussianBlur stdDeviation="11.5551"/>
<feColorMatrix type="matrix" values="0 0 0 0 0.261106 0 0 0 0 0.0354042 0 0 0 0 0.52 0 0 0 0.5 0"/>
<feBlend mode="normal" in2="BackgroundImageFix" result="effect1_dropShadow"/>
<feBlend mode="normal" in="SourceGraphic" in2="effect1_dropShadow" result="shape"/>
</filter>
<clipPath id="clip0">
<rect width="512" height="195.206" fill="white" transform="translate(0.998535 0.397217)"/>
</clipPath>
</defs>
</svg>
