<svg width="851" height="562" viewBox="0 0 851 562" fill="none" xmlns="http://www.w3.org/2000/svg">
<path fill-rule="evenodd" clip-rule="evenodd" d="M819.8 77.6432C831.322 90.7253 840.577 96.6525 855.151 96.6525H968.317L968.316 91.6298L968.316 89.0627H855.151C843.497 89.0627 836.048 84.2917 825.892 72.7612C825.814 72.6721 825.518 72.3323 825.098 71.8487C823.766 70.318 821.182 67.3471 820.265 66.3281C812.509 57.7106 806.5 53.7519 798.181 53.7519C790.663 53.7519 785.056 61.8757 778.991 77.5514C774.695 88.6567 770.773 101.81 764.558 124.819C755.252 159.273 754.256 162.824 750.675 173.088C748.368 179.699 746.267 184.518 744.359 187.506C743.52 188.82 742.773 189.688 742.215 190.093C734.809 187.217 728.367 178.874 717.372 159.994C717.309 159.887 717.095 159.518 716.803 159.016C716.04 157.702 714.748 155.481 714.277 154.674C713.09 152.641 712.114 150.991 711.175 149.435C701.078 132.706 693.853 125.095 684.243 125.095C678.899 125.095 673.254 126.576 666.759 129.37C663.292 130.861 659.952 132.537 654.956 135.211C638.123 144.218 633.222 145.949 629.639 143.423C628.108 142.343 625.007 134.443 621.133 120.953C619.519 115.334 614.692 97.1667 611.491 85.1177C610.093 79.8522 609.004 75.7553 608.63 74.3847C594.704 23.3781 584.672 0 570.305 0C560.744 0 555.183 14.2046 549.606 43.523C545.714 63.9854 542.823 85.6876 537.281 132.668L536.486 139.416C531.254 183.752 528.47 204.68 524.863 223.815C520.661 246.106 515.854 258.595 513.336 258.595C505.681 258.595 499.94 248.951 490.103 222.469L489.243 220.152C483.656 205.108 480.707 198.086 476.665 191.363C470.955 181.865 464.491 176.652 456.367 176.652C444.631 176.652 437.889 197.153 431.814 238.888C427.341 269.613 423.868 307.82 419.472 368.87C419.029 375.03 417.935 390.508 417.052 403.002C416.495 410.875 416.022 417.563 415.849 419.987C412.484 467.039 410.113 494.757 407.319 516.52C405.659 529.45 403.935 539.225 402.108 545.833C401.192 549.147 400.264 551.6 398.879 553.877C397.861 553.385 396.249 551.586 394.414 548.176C391.973 543.641 389.484 536.91 386.932 528.064C382.726 513.487 378.989 496.164 372.999 465.152C372.672 463.459 372.337 461.723 371.898 459.44L371.095 455.265L370.802 453.745C369.911 449.12 369.261 445.76 368.622 442.485C366.974 434.045 365.602 427.233 364.285 421.024C356.63 384.931 351.473 370.072 342.429 370.072C338.737 370.072 335.107 370.692 331.177 371.893C328.951 372.575 326.674 373.422 323.866 374.582C322.938 374.966 320.495 376.007 318.659 376.789C317.661 377.215 316.842 377.564 316.544 377.689C305.058 382.508 296.634 384.664 285.46 384.664C275.859 384.664 266.66 373.17 255.134 349.519C255.863 351.014 245.307 328.691 242.671 323.83C237.704 314.668 233.835 310.159 228.626 309.989C227.386 309.948 226.152 310.121 224.936 310.491C220.546 311.825 216.598 315.529 211.978 321.8C210.245 324.151 208.45 326.815 206.147 330.4C205.762 331 204.756 332.584 203.66 334.308C202.295 336.458 200.789 338.828 200.172 339.787C188.502 357.915 180.39 365.972 171.522 365.972C163.918 365.972 155.499 344.895 142.545 296.887C142.244 295.772 141.936 294.628 141.533 293.128L140.523 289.376C139.7 286.321 139.101 284.101 138.51 281.928C136.986 276.32 135.715 271.746 134.495 267.51C125.357 235.762 119.054 222.104 109.248 222.104C102.464 222.104 96.4576 226.047 90.5423 233.262C86.2976 238.439 82.7087 244.257 76.6403 255.164C76.8951 254.706 74.1965 259.565 73.4777 260.85C72.2922 262.968 71.3074 264.699 70.3664 266.309C64.4149 276.49 59.9393 282.013 55.9635 283.704C50.7586 285.917 42.8168 287.358 32.942 288.078C24.2171 288.713 15.0612 288.744 5.8302 288.417C5.09416 288.391 3.93173 288.343 2.88942 288.3C1.74566 288.253 0.746551 288.212 0.614258 288.212V295.802C0.62461 295.802 0.858616 295.812 1.22917 295.828C2.23802 295.871 4.25899 295.956 5.53448 296.002C15.0403 296.339 24.4716 296.307 33.5478 295.646C44.2563 294.866 52.9804 293.282 59.2032 290.636C65.3432 288.026 70.5084 281.651 77.3161 270.005C78.2842 268.349 79.2911 266.58 80.4977 264.423C81.2232 263.126 83.9292 258.254 83.6689 258.722C95.274 237.864 101.973 229.694 109.248 229.694C110.647 229.694 113.455 232.961 116.596 239.767C119.722 246.541 122.957 256.091 126.822 269.519C128.03 273.716 129.292 278.257 130.808 283.833C131.396 286 131.995 288.214 132.816 291.264L133.825 295.016C134.229 296.517 134.538 297.662 134.839 298.779C141.524 323.552 145.552 336.984 150.207 348.639C156.726 364.957 163.117 373.562 171.522 373.562C184.388 373.562 193.757 364.256 206.953 343.758C221.54 321.099 223.069 319.024 228.355 317.574C229.322 317.606 232.084 320.825 235.603 327.316C238.124 331.966 248.555 354.024 247.919 352.719C260.892 379.339 271.228 392.253 285.46 392.253C297.917 392.253 307.341 389.843 319.748 384.636C320.073 384.5 320.944 384.129 321.986 383.684C323.808 382.908 326.154 381.908 327.029 381.547C329.617 380.477 331.667 379.714 333.607 379.121C336.798 378.145 339.628 377.661 342.246 377.724C342.643 378.038 343.151 378.633 343.715 379.502C345.007 381.493 346.395 384.601 347.836 388.753C350.512 396.465 353.286 407.441 356.486 422.528C357.793 428.694 359.158 435.47 360.799 443.874C361.437 447.142 362.086 450.497 362.976 455.116L363.439 457.525L364.072 460.811C364.511 463.095 364.846 464.833 365.173 466.527C371.206 497.759 374.972 515.216 379.26 530.078C385.311 551.049 390.994 561.608 399.398 561.608C411.884 561.608 415.973 529.757 423.788 420.504C423.961 418.075 424.435 411.373 424.992 403.488C425.875 390.999 426.968 375.541 427.411 369.39C431.794 308.512 435.256 270.427 439.695 239.932C442.373 221.537 445.269 207.439 448.44 197.798C451.45 188.643 454.553 184.242 456.367 184.242C465.116 184.242 471.265 194.47 481.742 222.686L482.603 225.004C487.878 239.206 490.72 245.98 494.492 252.319C499.82 261.271 505.799 266.185 513.336 266.185C522.357 266.185 527.46 252.926 532.694 225.158C536.344 205.796 539.14 184.781 544.393 140.265L545.189 133.517C550.708 86.7228 553.588 65.1065 557.435 44.878C561.994 20.9095 567.209 7.58989 570.305 7.58989C578.428 7.58989 588.717 31.5687 600.93 76.2975C601.295 77.6343 602.364 81.6583 603.744 86.8527C606.945 98.9029 611.819 117.252 613.458 122.958C618.067 139.006 621.159 146.881 624.909 149.526C629.369 152.671 634.847 152.613 641.552 150.243C645.93 148.697 647.51 147.897 658.849 141.83C663.657 139.257 666.827 137.667 670.03 136.289C675.587 133.899 680.213 132.685 684.243 132.685C689.694 132.685 695.705 139.016 704.279 153.221C705.197 154.742 706.155 156.363 707.325 158.367C707.798 159.177 709.111 161.436 709.871 162.743L710.416 163.68C722.68 184.738 729.664 193.692 739.807 197.345C747.428 200.089 752.306 192.448 758.225 175.484C761.894 164.968 762.883 161.442 772.263 126.713C784.254 82.3188 792.37 61.3418 798.181 61.3418C803.529 61.3418 807.855 64.1914 814.227 71.2717C815.084 72.2246 817.556 75.0657 818.911 76.6232C819.374 77.1548 819.706 77.5369 819.8 77.6432ZM929.917 138.241H932.917H968.317L968.317 131.505L968.317 130.651H929.917V138.241Z" fill="#7610EB"/>
</svg>
